<svg id="NODA" xmlns="http://www.w3.org/2000/svg" viewBox="0 0 774.02 294.17"><defs><style>.cls-1{fill:#fff;}.cls-2{fill:#3f0a08;}.cls-3{fill:#ab1e15;}</style></defs><title>NODA New Final Color Logo</title><g id="O"><g id="NDA"><path class="cls-1" d="M698.69,42.07H629.9L612.45,91.88a111.06,111.06,0,0,0-96.26-55.8l-90.31-.23c18,15.87,33,36,44.75,60.27a80.4,80.4,0,0,1,7,25,188.92,188.92,0,0,1,1.11,26.09l-.09,4v.08c-1.53,40.13-17.8,74.95-48.34,103.48-1.41,1.32-2.83,2.6-4.27,3.86l90.13-.47a110.26,110.26,0,0,0,47.25-10.58,25.52,25.52,0,0,0,3.67,7.55,28.71,28.71,0,0,0,23.13,12,28.13,28.13,0,0,0,26.64-19.3l13.31-41.31,70.58.72,24.37,64.3L774,251.84ZM516.17,202.28h-15.3V91.88h15.3a55.2,55.2,0,1,1,0,110.4Zm128.08-36.37,20.56-60.58,24.79,69.15Z"/><path class="cls-1" d="M148.7,147c.49-35.41,12.28-66.89,35.05-93.57,2-2.64,4.14-5.23,6.35-7.71a130,130,0,0,1,9.8-9.85H124.2V149L53,35.86H0v197.4c0,15,12.78,27.6,27.9,27.6a27.78,27.78,0,0,0,27.9-27.6V145.92l72.41,112.24H198c-1.27-1.15-2.52-2.3-3.76-3.5C163.44,225.09,148.12,188.86,148.7,147Z"/></g><g id="O_Ball" data-name="O Ball"><path class="cls-2" d="M468.58,133.05q-.06-1.59-.15-3.09c-.12-2-.28-3.88-.46-5.66q-.14-1.33-.3-2.58a83.56,83.56,0,0,0-3.35-15.43,62.75,62.75,0,0,0-3.19-8c-1.29-2.67-2.62-5.28-4-7.85q-3.08-5.76-6.41-11.17-4.44-7.22-9.34-13.79-3.67-4.93-7.6-9.52c-.87-1-1.75-2-2.65-3q-2.67-3-5.46-5.79-4.19-4.22-8.62-8.08c-.88-.77-1.78-1.53-2.67-2.28q-3.17-2.64-6.46-5.1a160.26,160.26,0,0,0-37.84-21c-3.13-1.24-6.28-2.36-9.45-3.39A155.39,155.39,0,0,0,331.74,1c-2-.26-4-.47-5.95-.62S322,.09,320.13.05l-1,0-3.35,0h0A184.44,184.44,0,0,0,271,5.83c-2.09.51-4.2,1-6.31,1.62L266,7.13a172.92,172.92,0,0,1,42-5.47h0l4.09,0q5.18.14,10.9.85a148.25,148.25,0,0,1,36,9.2q56.32,22.07,85.43,82.15a70.72,70.72,0,0,1,6.14,22,173.08,173.08,0,0,1,1,23.78c0,1.25-.06,2.49-.08,3.72q-2.1,54.83-43.89,93.87-43.12,40.46-103.38,40.46t-102.3-40.46q-42.09-40.41-41.29-97.59a136.31,136.31,0,0,1,4.88-35c-.27.84-.55,1.68-.8,2.53a144.62,144.62,0,0,0-6,39.84q-.1,7.62.5,14.95a143.37,143.37,0,0,0,1.93,14.4q1,5.29,2.39,10.43a130,130,0,0,0,10.28,26.28,147.24,147.24,0,0,0,28.9,37.94c.94.9,1.88,1.78,2.82,2.65q2.5,2.29,5,4.45,4.71,4,9.62,7.55a149.41,149.41,0,0,0,15.61,9.89c1.07.59,2.15,1.17,3.24,1.73q3.26,1.68,6.58,3.2,6.66,3,13.63,5.39c1.16.39,2.33.77,3.5,1.13Q268,288.7,273.48,290c2.43.56,4.87,1.06,7.35,1.51,3.71.68,7.47,1.22,11.3,1.65a179.26,179.26,0,0,0,19.59,1.05q4,0,7.95-.17c1.41-.06,2.82-.14,4.22-.23,2.38-.16,4.73-.37,7.07-.62,2.68-.29,5.34-.63,8-1q5.65-.89,11.13-2.15t10.81-2.91c1.19-.36,2.36-.74,3.54-1.13q3.51-1.19,6.95-2.53t6.82-2.86c2.24-1,4.47-2.08,6.67-3.2,1.1-.56,2.19-1.14,3.28-1.73q4.9-2.66,9.63-5.68,3.17-2,6.25-4.21t6.1-4.55c1.44-1.12,2.86-2.29,4.28-3.47s3.09-2.62,4.61-4c1-.87,1.93-1.75,2.89-2.65a165.49,165.49,0,0,0,15.21-16.2q2.29-2.79,4.41-5.66t4.08-5.79q2.94-4.4,5.5-8.93,1.71-3,3.25-6.12c.52-1,1-2.07,1.51-3.11q2.19-4.69,4-9.53.6-1.62,1.17-3.24a132.44,132.44,0,0,0,3.86-13.29,140.71,140.71,0,0,0,3-17.36q.58-5.33.79-10.8c0-1.31.06-2.63.09-4s0-2.53,0-3.75C468.78,139.63,468.72,136.22,468.58,133.05Z"/><path class="cls-3" d="M201.86,237.25q42,40.46,102.3,40.46t103.38-40.46q41.81-39,43.89-93.87c0-1.23.05-2.47.08-3.72a173.08,173.08,0,0,0-1-23.78,70.72,70.72,0,0,0-6.14-22q-29.1-60.09-85.43-82.15a148.25,148.25,0,0,0-36-9.2q-5.73-.72-10.9-.85l-4.09,0h0a172.92,172.92,0,0,0-42,5.47l-1.26.32q-3.09.75-6.21,1.61-38,13.64-60.25,38.61-3,3.42-5.81,7.06a129.7,129.7,0,0,0-27,50,136.31,136.31,0,0,0-4.88,35Q159.77,196.84,201.86,237.25Z"/></g></g><g id="Ball_Texture" data-name="Ball Texture"><g id="Ball_Texture-2" data-name="Ball Texture"><path class="cls-2" d="M247.73,90.35a21.64,21.64,0,0,1-2.06,5.86,26.55,26.55,0,0,1-3.44,5.23,29.73,29.73,0,0,1-4.54,4.36,9.28,9.28,0,0,1-6,2,.43.43,0,0,1-.41-.45.53.53,0,0,1,.06-.19h0a16.47,16.47,0,0,1,3.91-4.53,46.47,46.47,0,0,0,4.13-3.81,56.71,56.71,0,0,0,3.74-4.28c1.17-1.52,2.29-3.09,3.41-4.74h0a.68.68,0,0,1,1.24.51Z"/><path class="cls-2" d="M252,92a26.79,26.79,0,0,1-2.13,6.79,34.39,34.39,0,0,1-3.67,6.17,35.58,35.58,0,0,1-4.91,5.28,11.64,11.64,0,0,1-6.62,3,.41.41,0,0,1-.45-.39.4.4,0,0,1,.05-.24,22.44,22.44,0,0,1,4.36-5.31,55,55,0,0,0,4.55-4.73,57.7,57.7,0,0,0,4-5.25c1.24-1.84,2.41-3.75,3.54-5.74a.68.68,0,0,1,.93-.26A.69.69,0,0,1,252,92Z"/><path class="cls-2" d="M247.38,107.23a18.6,18.6,0,0,1-.61,2.9c-.27.91-.58,1.8-.91,2.67s-.71,1.72-1.1,2.57a3.88,3.88,0,0,1-2.57,2,.59.59,0,0,1-.69-.26,3.7,3.7,0,0,1-.41-3.32,22.4,22.4,0,0,1,1.28-2.66,18.26,18.26,0,0,1,1.67-2.45,12.53,12.53,0,0,1,2.18-2.12.72.72,0,0,1,1,.15.7.7,0,0,1,.14.52Z"/><path class="cls-2" d="M255.4,94.23a66.74,66.74,0,0,1-1.48,6.54c-.58,2.15-1.22,4.27-1.74,6.33a30.81,30.81,0,0,0-1,6.1,18.21,18.21,0,0,1-1.45,6.55.43.43,0,0,1-.57.2.41.41,0,0,1-.17-.15,11.94,11.94,0,0,1-1.8-6.78,25.18,25.18,0,0,1,1.28-7A54.82,54.82,0,0,1,251,99.73c.94-2,2-4,3.11-6a.68.68,0,0,1,.93-.24.7.7,0,0,1,.33.7Z"/><path class="cls-2" d="M259.25,96.1a44.28,44.28,0,0,0-1.67,6.72,37.14,37.14,0,0,0-.44,6.73,35,35,0,0,0,.8,6.63,33,33,0,0,1,.86,7h0a.42.42,0,0,1-.42.42.41.41,0,0,1-.24-.08,11.15,11.15,0,0,1-4.09-6.42,28,28,0,0,1-.78-7.57,26.82,26.82,0,0,1,1.34-7.44,21.58,21.58,0,0,1,3.46-6.62.67.67,0,0,1,.95-.12.66.66,0,0,1,.23.75Z"/><path class="cls-2" d="M326.85,59.15a43.69,43.69,0,0,0-1.67,6.72,36.42,36.42,0,0,0-.44,6.74,33.56,33.56,0,0,0,.8,6.63,33,33,0,0,1,.85,7h0a.42.42,0,0,1-.41.42.46.46,0,0,1-.24-.08,11.15,11.15,0,0,1-4.09-6.42,28,28,0,0,1-.78-7.57,27.19,27.19,0,0,1,1.33-7.45,21.86,21.86,0,0,1,3.46-6.61.68.68,0,0,1,1-.12.7.7,0,0,1,.23.75Z"/><path class="cls-2" d="M252.28,131.25a38.14,38.14,0,0,1-6.67-.14,29.3,29.3,0,0,1-6.69-1.48,24,24,0,0,1-6.17-3.29,9.79,9.79,0,0,1-3.91-5.8.42.42,0,0,1,.34-.49.41.41,0,0,1,.22,0h0a24.68,24.68,0,0,1,5.66,3,29.78,29.78,0,0,0,5.27,2.93,48.8,48.8,0,0,0,5.86,2.07c2,.59,4.13,1.15,6.24,1.81a.68.68,0,0,1,.44.86A.67.67,0,0,1,252.28,131.25Z"/><path class="cls-2" d="M253,135.18a27.53,27.53,0,0,1-7.08.32,43,43,0,0,1-7-1.13,67.26,67.26,0,0,1-6.68-2.08,14.22,14.22,0,0,1-5.9-3.94.41.41,0,0,1,0-.59.37.37,0,0,1,.22-.1,15.62,15.62,0,0,1,7,.87c2.14.73,4.26,1.44,6.39,2.11s4.26,1.29,6.42,1.83,4.35,1,6.6,1.36a.69.69,0,0,1,0,1.35Z"/><path class="cls-2" d="M238.63,137.06a22.76,22.76,0,0,1-3,.63c-1,.15-2,.26-2.92.35s-1.93.14-2.89.2a4.25,4.25,0,0,1-3.11-1.3h0a.57.57,0,0,1-.1-.73,3.83,3.83,0,0,1,2.9-2,20.56,20.56,0,0,1,3.14-.09,18.43,18.43,0,0,1,3.13.44,12.73,12.73,0,0,1,3,1.11.72.72,0,0,1-.14,1.33Z"/><path class="cls-2" d="M252.9,139.78c-2.3.57-4.64,1-6.93,1.33-1.14.21-2.28.34-3.41.52s-2.2.43-3.3.68a60,60,0,0,0-6.45,1.83,22.1,22.1,0,0,1-6.9,1.29h0a.42.42,0,0,1-.34-.65,12.26,12.26,0,0,1,5.91-4.4,38.06,38.06,0,0,1,7.06-1.87,33.86,33.86,0,0,1,3.63-.4c1.2-.05,2.39-.07,3.58-.06a69.63,69.63,0,0,1,7.07.39.68.68,0,0,1,.09,1.34Z"/><path class="cls-2" d="M252.29,144.3c-1.87.59-3.73,1-5.51,1.54a31.78,31.78,0,0,0-5,1.88,43.51,43.51,0,0,0-4.71,2.67,12.2,12.2,0,0,1-5.57,2,.45.45,0,0,1-.47-.41.63.63,0,0,1,0-.19,10.07,10.07,0,0,1,3.82-4.7,27.61,27.61,0,0,1,5.37-2.88,20.12,20.12,0,0,1,6-1.35,29.22,29.22,0,0,1,5.92.15.69.69,0,0,1,.6.76A.67.67,0,0,1,252.29,144.3Z"/><path class="cls-2" d="M223.79,111.54a48.72,48.72,0,0,0-4,4.76,37.9,37.9,0,0,0-3.11,5.17,34.77,34.77,0,0,0-2.21,5.54,22.39,22.39,0,0,1-2.59,5.78h0a.42.42,0,0,1-.59.12.38.38,0,0,1-.15-.16,9.68,9.68,0,0,1-.51-6.84,26.29,26.29,0,0,1,2.65-6.3,24.79,24.79,0,0,1,4.21-5.34,20.22,20.22,0,0,1,5.5-3.83.69.69,0,0,1,.91.33.7.7,0,0,1-.12.76Z"/><path class="cls-2" d="M206.2,134a8.72,8.72,0,0,1-.66-4.08,30.32,30.32,0,0,1,.52-3.85,59.31,59.31,0,0,1,1.76-7.43,41.08,41.08,0,0,1,3-7.19,12.16,12.16,0,0,1,5.72-5.47.41.41,0,0,1,.55.48h0a34.82,34.82,0,0,1-2.74,6.85,62.51,62.51,0,0,0-2.86,6.58c-.86,2.26-1.65,4.59-2.45,6.93s-1.75,4.54-1.54,6.79v0a.68.68,0,0,1-.62.74A.67.67,0,0,1,206.2,134Z"/><path class="cls-2" d="M204.7,118a9,9,0,0,1-.37-2.7,12.27,12.27,0,0,1,.29-2.64,14.84,14.84,0,0,1,.79-2.53,3.08,3.08,0,0,1,2.5-1.76.66.66,0,0,1,.67.3h0a3.36,3.36,0,0,1,.56,2.87c-.26.74-.52,1.48-.82,2.22s-.62,1.47-1,2.21a18,18,0,0,1-1.31,2.23h0a.74.74,0,0,1-1,.18A.77.77,0,0,1,204.7,118Z"/><path class="cls-2" d="M200.74,133.84a19.15,19.15,0,0,0-.75-6.46,56.54,56.54,0,0,0-1.9-6.39,23.12,23.12,0,0,0-2.91-5.61c-1.19-1.72-2.36-3.28-3.74-5.43h0a.42.42,0,0,1,.12-.57.44.44,0,0,1,.24-.07,8.79,8.79,0,0,1,6.6,3.71,21.59,21.59,0,0,1,3.37,6.75,32.43,32.43,0,0,1,1.26,7.15,14,14,0,0,1-1,7.33.68.68,0,0,1-1.29-.38Z"/><path class="cls-2" d="M196.09,132.75a7.2,7.2,0,0,0-.52-4.39,25.39,25.39,0,0,0-2.08-4.33,22.88,22.88,0,0,0-2.83-3.8,15.55,15.55,0,0,1-2.81-4.37h0a.47.47,0,0,1,.24-.59.4.4,0,0,1,.15,0,7,7,0,0,1,5.33,2.26,18.24,18.24,0,0,1,3.33,4.7,17.07,17.07,0,0,1,1.67,5.48,10,10,0,0,1,0,3,5.16,5.16,0,0,1-1.34,2.83.68.68,0,0,1-1,0,.69.69,0,0,1-.17-.68Z"/><path class="cls-2" d="M226.51,103.56c-2-.88-4-1.74-6.06-2.56s-4-1.57-6.06-2.25-4.08-1.33-6.15-1.88A17.88,17.88,0,0,1,202.16,94a.44.44,0,0,1,.1-.74,11.91,11.91,0,0,1,7-.29,45.28,45.28,0,0,1,6.53,2.13,41.71,41.71,0,0,1,6.09,3.14,31.7,31.7,0,0,1,5.41,4.17.68.68,0,0,1,0,1A.72.72,0,0,1,226.51,103.56Z"/><path class="cls-2" d="M226.34,96.48c-1.94-.42-3.8-1-5.64-1.5s-3.64-1.07-5.44-1.54a54.27,54.27,0,0,0-5.37-1.17,17.07,17.07,0,0,1-5.47-1.82h0a.42.42,0,0,1,0-.73,8.43,8.43,0,0,1,6.1-1.4,30.89,30.89,0,0,1,5.93,1.42,37.15,37.15,0,0,1,5.47,2.4,39.93,39.93,0,0,1,5,3.11.69.69,0,0,1,.16,1A.72.72,0,0,1,226.34,96.48Z"/><path class="cls-2" d="M229,88.28a12.23,12.23,0,0,1-3,1.18,16.83,16.83,0,0,1-3.14.5,19.86,19.86,0,0,1-3.18,0A3.89,3.89,0,0,1,216.72,88a.58.58,0,0,1,.1-.73h0a4.27,4.27,0,0,1,3.11-1.32c1,0,1.94.08,2.91.15s1.95.17,2.94.3a24.78,24.78,0,0,1,3,.56h0a.73.73,0,0,1,.52.89A.7.7,0,0,1,229,88.28Z"/><path class="cls-2" d="M226.23,81.76a26,26,0,0,1-5.5,2.51,34,34,0,0,1-5.89,1.43,38.52,38.52,0,0,1-6.07.39,9.6,9.6,0,0,1-5.88-2,.43.43,0,0,1-.07-.61.61.61,0,0,1,.16-.12,13.81,13.81,0,0,1,5.8-1.28c1.88,0,3.75-.11,5.62-.25s3.75-.34,5.64-.56l5.73-.79a.68.68,0,0,1,.78.58A.69.69,0,0,1,226.23,81.76Z"/><path class="cls-2" d="M223.23,73.68a8.84,8.84,0,0,1-4.33,4.52,28.1,28.1,0,0,1-5.52,2.15,42.84,42.84,0,0,1-5.7,1.22,9.52,9.52,0,0,1-5.9-1,.44.44,0,0,1-.17-.6.42.42,0,0,1,.12-.14,12.16,12.16,0,0,1,5.33-2.23q2.7-.47,5.38-1c1.79-.38,3.61-.74,5.25-1.21A10.1,10.1,0,0,0,222.07,73l0,0a.69.69,0,0,1,1.14.71Z"/><path class="cls-2" d="M259.39,68.29a22.09,22.09,0,0,1-6.22-1,23.31,23.31,0,0,1-5.85-2.65,30,30,0,0,1-5-4,10.92,10.92,0,0,1-3.07-5.56.42.42,0,0,1,.34-.5.5.5,0,0,1,.21,0,13.3,13.3,0,0,1,5.3,3.2,48,48,0,0,0,4.35,3.69,38.79,38.79,0,0,0,4.83,3c1.72.89,3.5,1.71,5.36,2.53a.68.68,0,0,1-.29,1.31Z"/><path class="cls-2" d="M257.82,72.62A58.24,58.24,0,0,1,251,71.07a59.63,59.63,0,0,1-6.66-2.31A45.31,45.31,0,0,1,238,65.52a11.89,11.89,0,0,1-4.85-5.42.42.42,0,0,1,.22-.55.53.53,0,0,1,.25,0A22,22,0,0,1,240,62.1c1.92,1.12,3.9,2.15,5.91,3.14s4.07,2,6.14,3,4.15,2,6.19,3.15a.68.68,0,0,1,.26.93A.7.7,0,0,1,257.82,72.62Z"/><path class="cls-2" d="M245.53,72.79c-1,.1-1.89.12-2.77.15l-2.59.06-2.52.06a4,4,0,0,1-2.83-1.25h0a.63.63,0,0,1-.14-.72,3.38,3.38,0,0,1,2.7-2,13.52,13.52,0,0,1,3,.06,11.93,11.93,0,0,1,2.94.78,9,9,0,0,1,2.61,1.6.73.73,0,0,1,.05,1,.74.74,0,0,1-.47.24Z"/><path class="cls-2" d="M257,77.93c-2-.13-4-.24-5.94-.3s-3.89,0-5.82.1-3.84.3-5.74.59a15.82,15.82,0,0,1-6.09-.2.43.43,0,0,1-.32-.52.42.42,0,0,1,.09-.19,9.87,9.87,0,0,1,5.67-3,35.2,35.2,0,0,1,6.31-.52,31.39,31.39,0,0,1,6.27.72,24.64,24.64,0,0,1,5.93,2,.68.68,0,0,1,.3.92A.7.7,0,0,1,257,77.93Z"/><path class="cls-2" d="M255.71,81.29c-1.75.09-3.42.24-5.05.47a39.56,39.56,0,0,0-4.79,1,33.32,33.32,0,0,0-4.54,1.66,13.56,13.56,0,0,1-5.09,1.21h0a.46.46,0,0,1-.47-.43.78.78,0,0,1,0-.16,7.33,7.33,0,0,1,3.85-4.23A22.14,22.14,0,0,1,245,79a20.66,20.66,0,0,1,5.6-.35A16.29,16.29,0,0,1,256,80a.69.69,0,0,1-.23,1.32Z"/><path class="cls-2" d="M292.74,68a47.19,47.19,0,0,0-6.2.12,36.8,36.8,0,0,0-6,1,35.72,35.72,0,0,0-5.63,2,22.67,22.67,0,0,1-6.07,1.83h0a.43.43,0,0,1-.48-.36.41.41,0,0,1,0-.22,9.67,9.67,0,0,1,4.84-4.86,26.34,26.34,0,0,1,6.5-2.13,25.29,25.29,0,0,1,6.78-.31,19.94,19.94,0,0,1,6.51,1.65.69.69,0,0,1,.34.9.67.67,0,0,1-.65.4Z"/><path class="cls-2" d="M275.34,57.82a8.9,8.9,0,0,1,1.8-2,12.92,12.92,0,0,1,2.18-1.52,15.77,15.77,0,0,1,2.43-1,3.06,3.06,0,0,1,3,.74.65.65,0,0,1,.21.7h0a3.41,3.41,0,0,1-1.8,2.3c-.74.29-1.47.58-2.22.84s-1.52.49-2.32.7a17.22,17.22,0,0,1-2.53.47h0a.75.75,0,0,1-.71-1.14Z"/><path class="cls-2" d="M235.56,163a9,9,0,0,1,1.8-2.06,13,13,0,0,1,2.18-1.51,15.77,15.77,0,0,1,2.43-1.05,3.07,3.07,0,0,1,3,.74.65.65,0,0,1,.21.7h0a3.44,3.44,0,0,1-1.8,2.3c-.74.29-1.47.57-2.22.83s-1.52.5-2.32.7a16,16,0,0,1-2.53.47h0a.76.76,0,0,1-.82-.68A.72.72,0,0,1,235.56,163Z"/><path class="cls-2" d="M311.31,76.79a9.09,9.09,0,0,1,.18-2.72,13.18,13.18,0,0,1,.81-2.54,14.45,14.45,0,0,1,1.28-2.31,3.09,3.09,0,0,1,2.8-1.23.64.64,0,0,1,.59.43h0a3.35,3.35,0,0,1,0,2.92c-.4.68-.81,1.35-1.24,2s-.9,1.31-1.41,2a15.93,15.93,0,0,1-1.72,1.92h0a.75.75,0,0,1-1.06,0A.84.84,0,0,1,311.31,76.79Z"/><path class="cls-2" d="M260.79,65.19a18.93,18.93,0,0,0,4.39-4.81,55.18,55.18,0,0,0,3.59-5.61,23.26,23.26,0,0,0,2.33-5.87c.52-2,.94-3.94,1.65-6.39h0a.4.4,0,0,1,.51-.28.42.42,0,0,1,.21.13A8.83,8.83,0,0,1,275,49.77a21.66,21.66,0,0,1-2.9,7,32.81,32.81,0,0,1-4.58,5.64,14,14,0,0,1-6.19,4.05.68.68,0,0,1-.56-1.22Z"/><path class="cls-2" d="M258.56,61a7.23,7.23,0,0,0,3-3.27,26.72,26.72,0,0,0,1.91-4.41,23.8,23.8,0,0,0,1-4.63,15.39,15.39,0,0,1,1.46-5v0a.44.44,0,0,1,.59-.2l.13.09a7.07,7.07,0,0,1,1.78,5.51,18.68,18.68,0,0,1-1.37,5.6A17.3,17.3,0,0,1,264,59.49a9.81,9.81,0,0,1-2.27,2,5.24,5.24,0,0,1-3,.84.69.69,0,0,1-.24-1.31Z"/><path class="cls-2" d="M238.87,210.34a24.62,24.62,0,0,1,3.66-2.72,33.43,33.43,0,0,1,4-2.17,43,43,0,0,1,4.2-1.65,6.94,6.94,0,0,1,4.75.07.48.48,0,0,1,.28.62.59.59,0,0,0,0,.08,7.15,7.15,0,0,1-3.64,3c-1.37.52-2.73,1-4.1,1.49s-2.75.94-4.16,1.36a39.4,39.4,0,0,1-4.34,1.14.69.69,0,0,1-.82-.54A.7.7,0,0,1,238.87,210.34Z"/><path class="cls-2" d="M228.63,217.65a15.14,15.14,0,0,1-3,1.92,22.35,22.35,0,0,1-3.22,1.3,25.86,25.86,0,0,1-3.37.82,4.49,4.49,0,0,1-3.64-1,.57.57,0,0,1-.11-.74,4.88,4.88,0,0,1,3-2.15c1.07-.23,2.13-.45,3.2-.65s2.15-.36,3.25-.5a27,27,0,0,1,3.41-.23h0a.72.72,0,0,1,.72.72A.7.7,0,0,1,228.63,217.65Z"/><path class="cls-2" d="M225.13,215a14.51,14.51,0,0,1-2.59.46,9.07,9.07,0,0,1-2.85-.2,9.45,9.45,0,0,1-2.75-1.16,3,3,0,0,1-1.3-2.89.65.65,0,0,1,.44-.57h0a3.64,3.64,0,0,1,2.87,0c.63.34,1.24.64,1.88.91s1.33.53,2.13.84a10,10,0,0,1,2.43,1.27.74.74,0,0,1,.14,1,.69.69,0,0,1-.4.27Z"/><path class="cls-2" d="M230.74,220.1c-.39.86-.75,1.6-1,2.29a9.58,9.58,0,0,0-.48,2,13.94,13.94,0,0,0-.1,2.08,4,4,0,0,1-1.22,2.66h0a.62.62,0,0,1-.71.16,3.12,3.12,0,0,1-2-2.61,8.45,8.45,0,0,1,.32-3.21,6.86,6.86,0,0,1,1.71-2.84,6.08,6.08,0,0,1,2.68-1.57.73.73,0,0,1,.9.51.74.74,0,0,1,0,.51Z"/><path class="cls-2" d="M227.37,211.78a43.34,43.34,0,0,0,5.81-3.75,15.37,15.37,0,0,0,4.37-4.43,8.29,8.29,0,0,0,.49-1.21l.07-.31a1,1,0,0,0,0-.21,1.7,1.7,0,0,0,0-.39,3.14,3.14,0,0,0-1.09-1.76,14.41,14.41,0,0,0-5.45-2.82h0a.41.41,0,0,1-.26-.51.43.43,0,0,1,.18-.22,7.24,7.24,0,0,1,8.05.53,6.58,6.58,0,0,1,2.55,4.21,5,5,0,0,1,0,1.39,4.44,4.44,0,0,1-.12.67l-.14.55a9.14,9.14,0,0,1-.93,2.06,11.63,11.63,0,0,1-2.85,3.09,24.6,24.6,0,0,1-10.32,4.41.68.68,0,0,1-.41-1.28Z"/><path class="cls-2" d="M231.94,215.31a23.4,23.4,0,0,1,6.73-1.69c.66,0,1.15-.05,1.75,0s1.15,0,1.75.07a11.14,11.14,0,0,1,3.79.87,7.79,7.79,0,0,1,3.33,2.74,7.22,7.22,0,0,1,1.28,4.28,5.66,5.66,0,0,1-1.89,4,5.26,5.26,0,0,1-3.71,1.29.42.42,0,0,1-.4-.43.52.52,0,0,1,.08-.23h0a12.92,12.92,0,0,0,1.6-2.6,4.91,4.91,0,0,0,.35-2.09,4.09,4.09,0,0,0-2.32-3.46c-1.4-.77-3.63-1.05-5.71-1.4a59.82,59.82,0,0,0-6.42,0,.67.67,0,0,1-.67-.69A.69.69,0,0,1,231.94,215.31Z"/><path class="cls-2" d="M201.13,174.67c-1.18-1.89-2.33-3.75-3.51-5.57s-2.4-3.59-3.68-5.32-2.58-3.42-4-5.05a17.77,17.77,0,0,1-3.36-5.82.42.42,0,0,1,.27-.53.36.36,0,0,1,.23,0,11.89,11.89,0,0,1,5.88,3.75,45,45,0,0,1,4.14,5.48,42.19,42.19,0,0,1,3.19,6.06,32,32,0,0,1,2,6.51.69.69,0,0,1-.54.81A.71.71,0,0,1,201.13,174.67Z"/><path class="cls-2" d="M211.92,163.57a12.19,12.19,0,0,1-3.15-.76,17.67,17.67,0,0,1-2.87-1.39,22.09,22.09,0,0,1-2.58-1.85A3.91,3.91,0,0,1,202,156.3a.58.58,0,0,1,.49-.54h0a4.3,4.3,0,0,1,3.31.69c.77.59,1.54,1.18,2.3,1.8s1.5,1.25,2.24,1.92a25.12,25.12,0,0,1,2.17,2.2h0a.73.73,0,0,1-.09,1A.71.71,0,0,1,211.92,163.57Z"/><path class="cls-2" d="M213.37,156.63a26.11,26.11,0,0,1-5.94-1.08,34.66,34.66,0,0,1-5.65-2.21,37.29,37.29,0,0,1-5.2-3.15,9.66,9.66,0,0,1-3.69-5,.44.44,0,0,1,.3-.54.44.44,0,0,1,.2,0,13.83,13.83,0,0,1,5.48,2.28c1.55,1,3.14,2,4.75,3s3.27,1.86,4.95,2.76l5.15,2.63a.7.7,0,0,1,.31.93A.68.68,0,0,1,213.37,156.63Z"/><path class="cls-2" d="M215.54,148.29a8.82,8.82,0,0,1-6.14,1.23,28.37,28.37,0,0,1-5.76-1.4,41.41,41.41,0,0,1-5.36-2.27,9.36,9.36,0,0,1-4.28-4.17.44.44,0,0,1,.2-.59.53.53,0,0,1,.18,0,12.21,12.21,0,0,1,5.64,1.22c1.65.78,3.32,1.51,5,2.23s3.39,1.46,5,2a10,10,0,0,0,4.95.55h0a.69.69,0,0,1,.52,1.23Z"/><path class="cls-2" d="M241.51,177.24a22.2,22.2,0,0,1-6.3-.16,23.3,23.3,0,0,1-6.15-1.85,29.13,29.13,0,0,1-5.45-3.34,10.94,10.94,0,0,1-3.79-5.09.44.44,0,0,1,.27-.55.38.38,0,0,1,.21,0,13.32,13.32,0,0,1,5.68,2.45,45.48,45.48,0,0,0,4.81,3.09,39.86,39.86,0,0,0,5.18,2.34c1.82.65,3.7,1.23,5.64,1.79a.68.68,0,0,1-.1,1.34Z"/><path class="cls-2" d="M303.1,212.82a22.33,22.33,0,0,1-3.12-5.48,23.48,23.48,0,0,1-1.59-6.23,29.65,29.65,0,0,1,0-6.39,10.91,10.91,0,0,1,2.42-5.87.43.43,0,0,1,.61,0,.48.48,0,0,1,.12.16,13.38,13.38,0,0,1,.83,6.14,45.65,45.65,0,0,0-.16,5.71,39.36,39.36,0,0,0,.67,5.65c.38,1.89.85,3.8,1.38,5.75a.7.7,0,0,1-.48.85A.71.71,0,0,1,303.1,212.82Z"/><path class="cls-2" d="M226.31,180.72c-1,.23-1.86.37-2.73.52l-2.56.4-2.5.4a4,4,0,0,1-3-.87h0a.59.59,0,0,1-.23-.69,3.34,3.34,0,0,1,2.41-2.35,13.33,13.33,0,0,1,3-.35,11.79,11.79,0,0,1,3,.38,9,9,0,0,1,2.8,1.24.74.74,0,0,1,.19,1,.76.76,0,0,1-.44.29Z"/><path class="cls-2" d="M289.17,203.72c-.7-.7-1.29-1.38-1.87-2.05l-1.69-2L284,197.79a4,4,0,0,1-.82-3v0a.61.61,0,0,1,.47-.56,3.37,3.37,0,0,1,3.26.82,14.5,14.5,0,0,1,1.89,2.39,12.36,12.36,0,0,1,1.26,2.77,9.06,9.06,0,0,1,.41,3,.73.73,0,0,1-.77.7.76.76,0,0,1-.48-.21Z"/><path class="cls-2" d="M240.45,187.1c-2,.14-4,.29-5.93.5s-3.86.5-5.75.88-3.76.8-5.61,1.34a15.58,15.58,0,0,1-6.07.61.42.42,0,0,1-.38-.47.37.37,0,0,1,.07-.2A9.81,9.81,0,0,1,222,186a34.55,34.55,0,0,1,6.19-1.36,31,31,0,0,1,6.31-.12,24.71,24.71,0,0,1,6.14,1.24.68.68,0,0,1-.18,1.33Z"/><path class="cls-2" d="M289.61,217.33c-1.5-1.34-3-2.65-4.44-3.91s-3-2.43-4.56-3.55-3.15-2.18-4.79-3.15a15.47,15.47,0,0,1-4.55-4h0a.43.43,0,0,1,.09-.6.42.42,0,0,1,.18-.08,9.72,9.72,0,0,1,6.27,1.23,34.72,34.72,0,0,1,5.18,3.56,31.3,31.3,0,0,1,4.38,4.46,24.93,24.93,0,0,1,3.32,5.26.68.68,0,0,1-1.08.79Z"/><path class="cls-2" d="M254.89,197.43"/></g></g></svg>