<svg xmlns="http://www.w3.org/2000/svg" viewBox="0 0 1137.65 486.13"><defs><style>.cls-1{fill:#fff;}.cls-2{fill:#3f0a08;}.cls-3{fill:#ab1e15;}.cls-4{fill:#fc8181;}</style></defs><title>NODA New Final Color Logo</title><g id="NODA"><g id="O"><g id="NDA"><path class="cls-1" d="M1062.32,158.13H993.53l-17.45,49.81a111.06,111.06,0,0,0-96.26-55.8l-90.31-.22q27,23.79,44.75,60.26a80.48,80.48,0,0,1,7,25,188.92,188.92,0,0,1,1.11,26.09l-.09,4v.08c-1.53,40.13-17.8,75-48.34,103.48-1.41,1.32-2.83,2.6-4.27,3.86l90.13-.47a110.26,110.26,0,0,0,47.25-10.58,25.52,25.52,0,0,0,3.67,7.55,28.71,28.71,0,0,0,23.13,12,28.13,28.13,0,0,0,26.64-19.3l13.31-41.31,70.58.72,24.37,64.3,48.9-19.64ZM879.8,318.35H864.5V207.94h15.3a55.21,55.21,0,0,1,0,110.41ZM1007.88,282l20.56-60.58,24.79,69.15Z"/><path class="cls-1" d="M512.33,263.05c.49-35.41,12.28-66.89,35-93.57,2-2.64,4.14-5.23,6.35-7.71a130,130,0,0,1,9.8-9.85h-75.7V265.1L416.67,151.92h-53v197.4c0,15,12.78,27.6,27.9,27.6a27.78,27.78,0,0,0,27.9-27.6V262l72.41,112.24h69.79c-1.27-1.14-2.52-2.3-3.76-3.5C527.07,341.15,511.75,304.92,512.33,263.05Z"/></g><g id="O_Ball" data-name="O Ball"><path class="cls-2" d="M832.21,249.11c0-1.06-.09-2.08-.15-3.08-.12-2-.28-3.89-.46-5.67q-.14-1.32-.3-2.58A83.56,83.56,0,0,0,828,222.35a62.75,62.75,0,0,0-3.19-8c-1.29-2.67-2.62-5.28-4-7.85q-3.07-5.76-6.41-11.17-4.44-7.22-9.34-13.79-3.67-4.94-7.6-9.51c-.87-1-1.75-2-2.65-3q-2.67-3-5.46-5.78-4.18-4.23-8.62-8.09c-.88-.77-1.78-1.53-2.67-2.28q-3.16-2.64-6.46-5.1a160.62,160.62,0,0,0-37.84-21q-4.69-1.84-9.45-3.38a155.41,155.41,0,0,0-28.9-6.42c-2-.26-4-.47-6-.62s-3.82-.25-5.66-.29h-1l-3.35,0h0a184.44,184.44,0,0,0-44.72,5.83c-2.09.51-4.2,1-6.31,1.62l1.26-.32a172.92,172.92,0,0,1,42-5.47h0l4.09,0a107.79,107.79,0,0,1,10.9.86,147.77,147.77,0,0,1,36,9.19Q778.9,149.88,808,210a70.72,70.72,0,0,1,6.14,22,173.08,173.08,0,0,1,1,23.78c0,1.26-.06,2.5-.08,3.72q-2.1,54.82-43.89,93.87Q728,393.77,667.79,393.77t-102.3-40.46Q523.4,312.9,524.2,255.72a136.31,136.31,0,0,1,4.88-35c-.27.84-.55,1.68-.8,2.53a144.62,144.62,0,0,0-5.95,39.84q-.11,7.62.5,15a143.17,143.17,0,0,0,1.93,14.39q1,5.29,2.39,10.43a130,130,0,0,0,10.28,26.28,147.24,147.24,0,0,0,28.9,37.94c.94.9,1.88,1.78,2.82,2.65q2.51,2.3,5.05,4.45,4.71,4,9.62,7.55a147.77,147.77,0,0,0,15.61,9.89c1.07.59,2.15,1.17,3.24,1.73q3.26,1.68,6.58,3.2A145.64,145.64,0,0,0,622.88,402c1.16.39,2.33.77,3.5,1.13q5.28,1.65,10.73,2.91c2.43.56,4.87,1.07,7.35,1.51q5.56,1,11.3,1.65a179.26,179.26,0,0,0,19.59,1.05q4,0,7.95-.17c1.41-.06,2.82-.14,4.22-.23,2.38-.16,4.73-.36,7.07-.62q4-.42,8-1,5.66-.89,11.13-2.15t10.81-2.91c1.19-.36,2.36-.74,3.54-1.13q3.51-1.19,7-2.53t6.82-2.86c2.24-1,4.47-2.08,6.67-3.2,1.1-.56,2.19-1.14,3.28-1.73q4.9-2.66,9.63-5.68,3.17-2,6.25-4.21t6.1-4.55c1.44-1.12,2.86-2.29,4.28-3.47s3.09-2.61,4.61-4c1-.87,1.93-1.75,2.89-2.65a166.71,166.71,0,0,0,15.21-16.2q2.29-2.79,4.41-5.66t4.08-5.79q2.94-4.39,5.5-8.93,1.71-3,3.25-6.12c.52-1,1-2.07,1.51-3.11q2.19-4.69,4-9.53.6-1.61,1.17-3.24a132.44,132.44,0,0,0,3.86-13.29,140.39,140.39,0,0,0,3-17.36q.59-5.33.79-10.8c0-1.31.06-2.63.09-4s0-2.53,0-3.75Q832.42,253.86,832.21,249.11Z"/><path class="cls-3" d="M565.49,353.31q42,40.45,102.3,40.46t103.38-40.46q41.8-39,43.89-93.87c0-1.22.05-2.46.08-3.72a173.08,173.08,0,0,0-1-23.78A70.72,70.72,0,0,0,808,210q-29.1-60.08-85.43-82.15a147.77,147.77,0,0,0-36-9.19,107.79,107.79,0,0,0-10.9-.86l-4.09,0h0a172.92,172.92,0,0,0-42,5.47l-1.26.32c-2.06.51-4.13,1-6.21,1.61q-38,13.63-60.25,38.61-3,3.42-5.81,7.06a129.7,129.7,0,0,0-27,50,136.31,136.31,0,0,0-4.88,35Q523.41,312.9,565.49,353.31Z"/></g></g><g id="Ball_Texture" data-name="Ball Texture"><g id="Ball_Texture-2" data-name="Ball Texture"><path class="cls-2" d="M611.36,206.41a21.52,21.52,0,0,1-2.06,5.86,26.55,26.55,0,0,1-3.44,5.23,29.73,29.73,0,0,1-4.54,4.36,9.28,9.28,0,0,1-6,2,.43.43,0,0,1-.41-.45.6.6,0,0,1,.06-.19h0a16.27,16.27,0,0,1,3.91-4.52,48.15,48.15,0,0,0,4.13-3.82,56.71,56.71,0,0,0,3.74-4.28c1.17-1.52,2.29-3.09,3.41-4.74h0a.67.67,0,0,1,1-.18A.66.66,0,0,1,611.36,206.41Z"/><path class="cls-2" d="M615.6,208.09a26.79,26.79,0,0,1-2.13,6.79,34,34,0,0,1-3.67,6.17,35.58,35.58,0,0,1-4.91,5.28,11.64,11.64,0,0,1-6.62,3,.4.4,0,0,1-.45-.38.42.42,0,0,1,0-.25,22.44,22.44,0,0,1,4.36-5.31,53.39,53.39,0,0,0,4.54-4.73,56,56,0,0,0,4-5.25c1.24-1.84,2.4-3.75,3.54-5.74a.68.68,0,0,1,1.27.45Z"/><path class="cls-2" d="M611,223.3a18.47,18.47,0,0,1-.61,2.89c-.27.91-.58,1.8-.91,2.67s-.71,1.72-1.1,2.57a3.88,3.88,0,0,1-2.57,2,.59.59,0,0,1-.69-.26,3.7,3.7,0,0,1-.41-3.32,22.4,22.4,0,0,1,1.28-2.66,18.26,18.26,0,0,1,1.67-2.45,12.53,12.53,0,0,1,2.18-2.12.72.72,0,0,1,1,.15.7.7,0,0,1,.14.52Z"/><path class="cls-2" d="M619,210.29a66.74,66.74,0,0,1-1.48,6.54c-.58,2.15-1.22,4.27-1.74,6.33a30.78,30.78,0,0,0-1,6.11,18.21,18.21,0,0,1-1.45,6.54.43.43,0,0,1-.57.2.41.41,0,0,1-.17-.15,11.94,11.94,0,0,1-1.8-6.78,25.18,25.18,0,0,1,1.28-7,54.82,54.82,0,0,1,2.57-6.29c.94-2,2-4,3.11-6a.68.68,0,0,1,.93-.24.7.7,0,0,1,.33.7Z"/><path class="cls-2" d="M622.88,212.16a44.28,44.28,0,0,0-1.67,6.72,37.14,37.14,0,0,0-.44,6.73,35,35,0,0,0,.8,6.63,33,33,0,0,1,.86,7h0a.43.43,0,0,1-.42.41.41.41,0,0,1-.24-.08,11.15,11.15,0,0,1-4.09-6.42,28,28,0,0,1-.78-7.57,26.82,26.82,0,0,1,1.34-7.44,21.89,21.89,0,0,1,3.45-6.62.68.68,0,0,1,1-.12.67.67,0,0,1,.23.75Z"/><path class="cls-2" d="M690.47,175.22a44.41,44.41,0,0,0-1.66,6.71,36.42,36.42,0,0,0-.44,6.74,34.32,34.32,0,0,0,.79,6.63,32.36,32.36,0,0,1,.86,7h0a.42.42,0,0,1-.41.42.38.38,0,0,1-.24-.08,11.15,11.15,0,0,1-4.09-6.42,28,28,0,0,1-.78-7.57,27.19,27.19,0,0,1,1.33-7.45,21.86,21.86,0,0,1,3.46-6.61.68.68,0,0,1,1-.12.7.7,0,0,1,.23.75Z"/><path class="cls-2" d="M615.91,247.31a37.19,37.19,0,0,1-6.67-.14,29.3,29.3,0,0,1-6.69-1.48,24,24,0,0,1-6.17-3.29,9.79,9.79,0,0,1-3.91-5.79.43.43,0,0,1,.34-.5.41.41,0,0,1,.22,0h0a24.68,24.68,0,0,1,5.66,3,29.16,29.16,0,0,0,5.27,2.93,48.8,48.8,0,0,0,5.86,2.07c2,.59,4.13,1.15,6.24,1.81a.68.68,0,0,1,.44.86A.67.67,0,0,1,615.91,247.31Z"/><path class="cls-2" d="M616.66,251.24a27.09,27.09,0,0,1-7.08.32,43,43,0,0,1-7-1.13,64.72,64.72,0,0,1-6.68-2.08,14.22,14.22,0,0,1-5.9-3.94.41.41,0,0,1,0-.59.44.44,0,0,1,.22-.1,15.76,15.76,0,0,1,7,.87c2.14.73,4.26,1.44,6.39,2.11s4.26,1.29,6.42,1.83,4.35,1,6.6,1.37a.68.68,0,0,1,.56.78A.69.69,0,0,1,616.66,251.24Z"/><path class="cls-2" d="M602.26,253.12a22.76,22.76,0,0,1-3,.63c-1,.15-2,.26-2.92.35s-1.93.14-2.89.2a4.2,4.2,0,0,1-3.11-1.3h0a.57.57,0,0,1-.1-.73,3.83,3.83,0,0,1,2.9-2,21.92,21.92,0,0,1,3.14-.09,18.43,18.43,0,0,1,3.13.44,12.73,12.73,0,0,1,3,1.11.73.73,0,0,1,.3,1,.78.78,0,0,1-.44.36Z"/><path class="cls-2" d="M616.53,255.84c-2.3.57-4.64,1-6.93,1.33-1.14.21-2.28.34-3.41.53s-2.2.42-3.3.67a60,60,0,0,0-6.45,1.83,22.39,22.39,0,0,1-6.9,1.3h0a.41.41,0,0,1-.41-.42.4.4,0,0,1,.07-.24,12.26,12.26,0,0,1,5.91-4.4,38.06,38.06,0,0,1,7.06-1.87,33.86,33.86,0,0,1,3.63-.4c1.2,0,2.39-.07,3.58-.06a69.63,69.63,0,0,1,7.07.39.68.68,0,0,1,.61.75A.67.67,0,0,1,616.53,255.84Z"/><path class="cls-2" d="M615.92,260.37c-1.87.58-3.73,1-5.51,1.53a31.78,31.78,0,0,0-5,1.88,43.51,43.51,0,0,0-4.71,2.67,12.2,12.2,0,0,1-5.57,2,.44.44,0,0,1-.47-.41.63.63,0,0,1,0-.19,10.07,10.07,0,0,1,3.82-4.7,27.61,27.61,0,0,1,5.37-2.88,20.06,20.06,0,0,1,6-1.35,29.3,29.3,0,0,1,5.93.15.69.69,0,0,1,.12,1.34Z"/><path class="cls-2" d="M587.42,227.6a48.72,48.72,0,0,0-4,4.76,38.52,38.52,0,0,0-3.11,5.17,35.15,35.15,0,0,0-2.21,5.54,22.6,22.6,0,0,1-2.59,5.79h0a.43.43,0,0,1-.59.13.47.47,0,0,1-.15-.17,9.68,9.68,0,0,1-.51-6.84,26.29,26.29,0,0,1,2.65-6.3,25,25,0,0,1,4.21-5.34,20.22,20.22,0,0,1,5.5-3.83.69.69,0,0,1,.91.33.7.7,0,0,1-.12.76Z"/><path class="cls-2" d="M569.83,250a8.68,8.68,0,0,1-.66-4.07,30.48,30.48,0,0,1,.52-3.86,59.31,59.31,0,0,1,1.76-7.43,41.08,41.08,0,0,1,3-7.19,12.16,12.16,0,0,1,5.72-5.47.41.41,0,0,1,.55.48h0a34.82,34.82,0,0,1-2.74,6.85,62.51,62.51,0,0,0-2.86,6.58c-.86,2.27-1.65,4.59-2.45,6.94s-1.75,4.53-1.54,6.78v0a.68.68,0,0,1-1.3.35Z"/><path class="cls-2" d="M568.33,234.08a9,9,0,0,1-.37-2.7,12.27,12.27,0,0,1,.29-2.64,14.84,14.84,0,0,1,.79-2.53,3.08,3.08,0,0,1,2.5-1.76.67.67,0,0,1,.67.3h0a3.36,3.36,0,0,1,.56,2.87c-.26.74-.52,1.49-.82,2.22s-.62,1.47-1,2.21a18,18,0,0,1-1.31,2.23h0a.75.75,0,0,1-1,.17A.73.73,0,0,1,568.33,234.08Z"/><path class="cls-2" d="M564.37,249.9a19.15,19.15,0,0,0-.75-6.46,56.54,56.54,0,0,0-1.9-6.39,23.12,23.12,0,0,0-2.91-5.61c-1.19-1.72-2.36-3.28-3.74-5.42v0a.42.42,0,0,1,.12-.57.44.44,0,0,1,.24-.07,8.79,8.79,0,0,1,6.6,3.71,21.59,21.59,0,0,1,3.37,6.75,32.54,32.54,0,0,1,1.26,7.15,14,14,0,0,1-1,7.33.68.68,0,0,1-1.29-.38Z"/><path class="cls-2" d="M559.72,248.82a7.23,7.23,0,0,0-.52-4.4,25.75,25.75,0,0,0-2.08-4.33,22.88,22.88,0,0,0-2.83-3.8,15.4,15.4,0,0,1-2.81-4.37h0a.47.47,0,0,1,.24-.59.4.4,0,0,1,.15,0,7.06,7.06,0,0,1,5.33,2.26,18.24,18.24,0,0,1,3.33,4.7,17.14,17.14,0,0,1,1.67,5.48,10,10,0,0,1,0,3,5.16,5.16,0,0,1-1.34,2.83.68.68,0,0,1-1,0,.69.69,0,0,1-.17-.68Z"/><path class="cls-2" d="M590.14,219.62c-2-.88-4-1.74-6.06-2.56s-4-1.57-6.06-2.25-4.08-1.33-6.15-1.88a17.88,17.88,0,0,1-6.08-2.84.43.43,0,0,1-.08-.59.31.31,0,0,1,.18-.14,11.75,11.75,0,0,1,7-.29,44,44,0,0,1,6.53,2.12,41.71,41.71,0,0,1,6.09,3.14,31.7,31.7,0,0,1,5.41,4.17.68.68,0,0,1,0,1A.72.72,0,0,1,590.14,219.62Z"/><path class="cls-2" d="M590,212.54c-1.94-.42-3.8-.95-5.64-1.5s-3.64-1.07-5.44-1.54a54.27,54.27,0,0,0-5.37-1.17,17.07,17.07,0,0,1-5.47-1.82h0a.42.42,0,0,1,0-.73,8.48,8.48,0,0,1,6.1-1.4A30.89,30.89,0,0,1,580,205.8a38.24,38.24,0,0,1,5.47,2.4,39.93,39.93,0,0,1,5,3.11.69.69,0,0,1,.16,1A.7.7,0,0,1,590,212.54Z"/><path class="cls-2" d="M592.63,204.35a12.6,12.6,0,0,1-3,1.17,16.83,16.83,0,0,1-3.14.5,19.86,19.86,0,0,1-3.18,0,3.89,3.89,0,0,1-2.95-1.92.58.58,0,0,1,.1-.73h0a4.27,4.27,0,0,1,3.11-1.32c1,0,1.94.08,2.91.15s1.95.17,2.94.3a24.78,24.78,0,0,1,3,.56h0a.73.73,0,0,1,.52.89A.72.72,0,0,1,592.63,204.35Z"/><path class="cls-2" d="M589.86,197.82a26.55,26.55,0,0,1-5.5,2.52,33.93,33.93,0,0,1-5.89,1.42,37.36,37.36,0,0,1-6.07.39,9.58,9.58,0,0,1-5.88-2,.43.43,0,0,1-.07-.61.61.61,0,0,1,.16-.12,14,14,0,0,1,5.8-1.28c1.88,0,3.75-.11,5.62-.25s3.75-.34,5.64-.56l5.73-.79a.68.68,0,0,1,.78.58A.69.69,0,0,1,589.86,197.82Z"/><path class="cls-2" d="M586.86,189.74a8.8,8.8,0,0,1-4.33,4.52,28,28,0,0,1-5.53,2.15,42.36,42.36,0,0,1-5.69,1.22,9.45,9.45,0,0,1-5.9-1,.44.44,0,0,1-.17-.6.81.81,0,0,1,.12-.14,12.28,12.28,0,0,1,5.33-2.23c1.8-.31,3.59-.66,5.38-1s3.61-.75,5.25-1.22a10.1,10.1,0,0,0,4.38-2.38l0,0a.69.69,0,0,1,1.14.71Z"/><path class="cls-2" d="M623,184.35a22.44,22.44,0,0,1-6.22-1A23.34,23.34,0,0,1,611,180.7a29.5,29.5,0,0,1-5-4,10.93,10.93,0,0,1-3.07-5.55.43.43,0,0,1,.34-.51.5.5,0,0,1,.21,0,13.3,13.3,0,0,1,5.3,3.2,48,48,0,0,0,4.35,3.69,38.79,38.79,0,0,0,4.83,3c1.72.9,3.5,1.71,5.36,2.53a.69.69,0,0,1,.35.9A.67.67,0,0,1,623,184.35Z"/><path class="cls-2" d="M621.45,188.68a58.24,58.24,0,0,1-6.83-1.55,59.57,59.57,0,0,1-6.66-2.3,46.47,46.47,0,0,1-6.36-3.25,11.84,11.84,0,0,1-4.85-5.42.42.42,0,0,1,.22-.55.53.53,0,0,1,.25,0,22,22,0,0,1,6.43,2.57c1.92,1.12,3.9,2.15,5.91,3.14s4.07,2,6.14,3,4.15,2,6.19,3.15a.68.68,0,0,1,.26.93A.7.7,0,0,1,621.45,188.68Z"/><path class="cls-2" d="M609.16,188.85c-1,.1-1.89.12-2.77.15l-2.59.06-2.52.06a4,4,0,0,1-2.83-1.25h0a.62.62,0,0,1-.14-.71,3.37,3.37,0,0,1,2.7-2,13.52,13.52,0,0,1,3,.06A11.93,11.93,0,0,1,607,186a9,9,0,0,1,2.61,1.6.73.73,0,0,1,0,1,.74.74,0,0,1-.47.24Z"/><path class="cls-2" d="M620.66,194c-2-.13-4-.24-5.94-.3s-3.89,0-5.82.1-3.84.3-5.74.59a15.82,15.82,0,0,1-6.09-.2.43.43,0,0,1-.32-.52.42.42,0,0,1,.09-.19,9.79,9.79,0,0,1,5.67-3,33.46,33.46,0,0,1,6.31-.52,30,30,0,0,1,6.27.72,24.2,24.2,0,0,1,5.93,2,.68.68,0,0,1,.3.92A.67.67,0,0,1,620.66,194Z"/><path class="cls-2" d="M619.34,197.35c-1.75.09-3.42.24-5.05.47a39.56,39.56,0,0,0-4.79,1,33.32,33.32,0,0,0-4.54,1.66,13.62,13.62,0,0,1-5.1,1.21h0a.46.46,0,0,1-.47-.43.78.78,0,0,1,0-.16,7.36,7.36,0,0,1,3.85-4.23,22.14,22.14,0,0,1,5.34-1.81,20.66,20.66,0,0,1,5.6-.35,16.29,16.29,0,0,1,5.38,1.28.68.68,0,0,1,.36.9.67.67,0,0,1-.59.42Z"/><path class="cls-2" d="M656.37,184.06a49,49,0,0,0-6.2.12,35.76,35.76,0,0,0-5.95,1,33.81,33.81,0,0,0-5.63,2,22.67,22.67,0,0,1-6.07,1.82h0a.44.44,0,0,1-.48-.37.42.42,0,0,1,0-.22,9.67,9.67,0,0,1,4.84-4.86,26.34,26.34,0,0,1,6.5-2.13,25.29,25.29,0,0,1,6.78-.31,19.94,19.94,0,0,1,6.51,1.65.69.69,0,0,1,.34.9.7.7,0,0,1-.65.41Z"/><path class="cls-2" d="M639,173.88a9.11,9.11,0,0,1,1.8-2,12.47,12.47,0,0,1,2.18-1.51,15.82,15.82,0,0,1,2.43-1.06,3.09,3.09,0,0,1,3,.74.65.65,0,0,1,.21.7h0a3.41,3.41,0,0,1-1.8,2.3c-.74.29-1.47.58-2.22.84s-1.52.49-2.32.7a17.22,17.22,0,0,1-2.53.47h0a.75.75,0,0,1-.82-.67A.76.76,0,0,1,639,173.88Z"/><path class="cls-2" d="M599.19,279.09a8.7,8.7,0,0,1,1.8-2,12.53,12.53,0,0,1,2.18-1.52,15.77,15.77,0,0,1,2.43-1,3.07,3.07,0,0,1,3,.74.65.65,0,0,1,.21.7h0a3.41,3.41,0,0,1-1.8,2.3c-.74.29-1.47.58-2.22.83s-1.52.5-2.32.7a16,16,0,0,1-2.53.48h0a.75.75,0,0,1-.82-.67A.73.73,0,0,1,599.19,279.09Z"/><path class="cls-2" d="M674.94,192.85a9.09,9.09,0,0,1,.18-2.72,13.18,13.18,0,0,1,.81-2.54,14.45,14.45,0,0,1,1.28-2.31,3.09,3.09,0,0,1,2.8-1.23.64.64,0,0,1,.59.43h0a3.35,3.35,0,0,1,0,2.92c-.4.68-.81,1.35-1.24,2s-.91,1.31-1.41,2a15.93,15.93,0,0,1-1.72,1.92h0a.75.75,0,0,1-1.06,0A.84.84,0,0,1,674.94,192.85Z"/><path class="cls-2" d="M624.42,181.25a18.93,18.93,0,0,0,4.39-4.81,55.18,55.18,0,0,0,3.59-5.61,23.26,23.26,0,0,0,2.33-5.87c.52-2,.94-3.94,1.65-6.38v0a.4.4,0,0,1,.51-.28.42.42,0,0,1,.21.13,8.83,8.83,0,0,1,1.52,7.42,21.66,21.66,0,0,1-2.9,7,32.81,32.81,0,0,1-4.58,5.64,14,14,0,0,1-6.19,4,.69.69,0,0,1-.83-.49.7.7,0,0,1,.27-.73Z"/><path class="cls-2" d="M622.19,177a7.23,7.23,0,0,0,3-3.27,26.36,26.36,0,0,0,1.91-4.41,23.48,23.48,0,0,0,1-4.63,15.39,15.39,0,0,1,1.46-5v0a.44.44,0,0,1,.59-.2l.13.1a7,7,0,0,1,1.78,5.5,18.61,18.61,0,0,1-1.37,5.6,17.3,17.3,0,0,1-3.05,4.84,9.81,9.81,0,0,1-2.27,2,5.24,5.24,0,0,1-3,.84.69.69,0,0,1-.24-1.31Z"/><path class="cls-2" d="M602.5,326.4a24.62,24.62,0,0,1,3.66-2.72,33.43,33.43,0,0,1,4-2.17,43,43,0,0,1,4.2-1.65,6.94,6.94,0,0,1,4.75.07.48.48,0,0,1,.28.62l0,.08a7.19,7.19,0,0,1-3.64,3c-1.37.52-2.73,1-4.1,1.49s-2.75.95-4.16,1.36a37.29,37.29,0,0,1-4.34,1.14.69.69,0,0,1-.82-.54A.7.7,0,0,1,602.5,326.4Z"/><path class="cls-2" d="M592.26,333.71a15.14,15.14,0,0,1-3,1.92,22.35,22.35,0,0,1-3.22,1.3,25.86,25.86,0,0,1-3.37.82,4.49,4.49,0,0,1-3.64-1A.56.56,0,0,1,579,336a4.86,4.86,0,0,1,3-2.16c1.07-.23,2.13-.45,3.2-.65s2.15-.36,3.25-.5a27,27,0,0,1,3.41-.23h0a.72.72,0,0,1,.72.72A.7.7,0,0,1,592.26,333.71Z"/><path class="cls-2" d="M588.76,331.08a14.51,14.51,0,0,1-2.59.46,9.36,9.36,0,0,1-2.85-.19,9.75,9.75,0,0,1-2.75-1.17,3,3,0,0,1-1.3-2.89.65.65,0,0,1,.44-.57h0a3.58,3.58,0,0,1,2.86,0c.64.34,1.25.64,1.89.91s1.33.53,2.13.84a10.31,10.31,0,0,1,2.43,1.27.74.74,0,0,1,.14,1,.69.69,0,0,1-.4.27Z"/><path class="cls-2" d="M594.37,336.17c-.39.85-.75,1.59-1,2.28a9.58,9.58,0,0,0-.48,2,13.94,13.94,0,0,0-.1,2.08,4,4,0,0,1-1.22,2.66h0a.62.62,0,0,1-.71.16,3.11,3.11,0,0,1-2-2.61,8.45,8.45,0,0,1,.32-3.21,6.86,6.86,0,0,1,1.71-2.84,6.1,6.1,0,0,1,2.67-1.57.73.73,0,0,1,.91.52.71.71,0,0,1,0,.5Z"/><path class="cls-2" d="M591,327.85a44.41,44.41,0,0,0,5.81-3.76,15.37,15.37,0,0,0,4.37-4.43,7.86,7.86,0,0,0,.49-1.21l.07-.31a1,1,0,0,0,0-.21,1.7,1.7,0,0,0,0-.39,3.14,3.14,0,0,0-1.09-1.76,14.41,14.41,0,0,0-5.45-2.82h0a.41.41,0,0,1-.26-.51.43.43,0,0,1,.18-.22,7.24,7.24,0,0,1,8,.53,6.61,6.61,0,0,1,2.55,4.21,5,5,0,0,1,0,1.39,4.44,4.44,0,0,1-.12.67l-.14.55a9.14,9.14,0,0,1-.93,2.06,11.48,11.48,0,0,1-2.85,3.09,24.6,24.6,0,0,1-10.32,4.41.68.68,0,0,1-.41-1.28Z"/><path class="cls-2" d="M595.57,331.37a23.32,23.32,0,0,1,6.73-1.69c.66,0,1.15,0,1.75,0s1.15,0,1.75.07a11.14,11.14,0,0,1,3.79.87,7.79,7.79,0,0,1,3.33,2.74,7.22,7.22,0,0,1,1.28,4.28,5.66,5.66,0,0,1-1.89,4,5.26,5.26,0,0,1-3.71,1.29.41.41,0,0,1-.4-.43.57.57,0,0,1,.08-.23h0a12.92,12.92,0,0,0,1.6-2.6,4.91,4.91,0,0,0,.35-2.09,4.11,4.11,0,0,0-2.32-3.46c-1.4-.77-3.63-1-5.71-1.39a59.67,59.67,0,0,0-6.42,0,.67.67,0,0,1-.67-.69A.69.69,0,0,1,595.57,331.37Z"/><path class="cls-2" d="M564.76,290.73c-1.18-1.89-2.33-3.75-3.51-5.57s-2.4-3.59-3.68-5.31-2.58-3.42-4-5.06a17.82,17.82,0,0,1-3.36-5.81.43.43,0,0,1,.27-.54.45.45,0,0,1,.23,0,11.89,11.89,0,0,1,5.88,3.75,46,46,0,0,1,4.14,5.48,42.72,42.72,0,0,1,3.19,6.06,32,32,0,0,1,2,6.51.69.69,0,0,1-.54.81A.71.71,0,0,1,564.76,290.73Z"/><path class="cls-2" d="M575.55,279.63a12.19,12.19,0,0,1-3.15-.76,16.88,16.88,0,0,1-2.87-1.39,21,21,0,0,1-2.58-1.85,3.91,3.91,0,0,1-1.31-3.27.58.58,0,0,1,.49-.54h0a4.3,4.3,0,0,1,3.31.69c.77.59,1.54,1.18,2.3,1.8s1.5,1.25,2.24,1.92a23.94,23.94,0,0,1,2.17,2.21h0a.73.73,0,0,1-.09,1A.71.71,0,0,1,575.55,279.63Z"/><path class="cls-2" d="M577,272.69a26.11,26.11,0,0,1-5.94-1.08,33.77,33.77,0,0,1-5.65-2.21,37.29,37.29,0,0,1-5.2-3.15,9.66,9.66,0,0,1-3.69-5,.44.44,0,0,1,.3-.54.41.41,0,0,1,.19,0A13.81,13.81,0,0,1,562.5,263c1.55,1.05,3.14,2.05,4.75,3s3.27,1.86,5,2.76l5.15,2.64a.68.68,0,0,1-.35,1.29Z"/><path class="cls-2" d="M579.17,264.35a8.82,8.82,0,0,1-6.14,1.23,28.37,28.37,0,0,1-5.76-1.4,42.79,42.79,0,0,1-5.36-2.26,9.43,9.43,0,0,1-4.28-4.18.43.43,0,0,1,.2-.58.37.37,0,0,1,.18-.05,12.21,12.21,0,0,1,5.64,1.22c1.65.78,3.32,1.51,5,2.23s3.39,1.46,5,2a10.09,10.09,0,0,0,5,.56h0a.69.69,0,0,1,.52,1.23Z"/><path class="cls-2" d="M605.14,293.3a22.2,22.2,0,0,1-6.3-.16,23.3,23.3,0,0,1-6.15-1.85,29.62,29.62,0,0,1-5.45-3.33,11,11,0,0,1-3.79-5.1.44.44,0,0,1,.27-.55.38.38,0,0,1,.21,0,13.21,13.21,0,0,1,5.68,2.46,47,47,0,0,0,4.81,3.08,39.86,39.86,0,0,0,5.18,2.34c1.82.66,3.7,1.23,5.64,1.79a.68.68,0,0,1,.48.84A.69.69,0,0,1,605.14,293.3Z"/><path class="cls-2" d="M666.73,328.88a22.33,22.33,0,0,1-3.12-5.48,23.48,23.48,0,0,1-1.59-6.23,29.55,29.55,0,0,1,0-6.38,10.9,10.9,0,0,1,2.42-5.88.43.43,0,0,1,.61-.05.48.48,0,0,1,.12.16,13.38,13.38,0,0,1,.83,6.14,45.7,45.7,0,0,0-.16,5.71,39.36,39.36,0,0,0,.67,5.65c.38,1.89.85,3.8,1.38,5.75a.69.69,0,0,1-1.2.61Z"/><path class="cls-2" d="M589.94,296.78c-1,.23-1.86.37-2.73.52l-2.56.4-2.5.4a4,4,0,0,1-3-.86h0a.59.59,0,0,1-.23-.69,3.34,3.34,0,0,1,2.4-2.35,14.08,14.08,0,0,1,3-.35,12.25,12.25,0,0,1,3,.38,9,9,0,0,1,2.8,1.24.74.74,0,0,1,.19,1,.78.78,0,0,1-.44.3Z"/><path class="cls-2" d="M652.8,319.78c-.7-.7-1.29-1.38-1.88-2l-1.68-2-1.65-1.91a4,4,0,0,1-.82-3v0a.61.61,0,0,1,.47-.56,3.37,3.37,0,0,1,3.26.82,14.5,14.5,0,0,1,1.89,2.39,12.36,12.36,0,0,1,1.26,2.77,9.12,9.12,0,0,1,.41,3,.73.73,0,0,1-.77.69.76.76,0,0,1-.48-.21Z"/><path class="cls-2" d="M604.08,303.16c-2,.14-4,.3-5.93.5s-3.86.51-5.75.88-3.76.81-5.61,1.34a15.58,15.58,0,0,1-6.07.61.42.42,0,0,1-.38-.47.32.32,0,0,1,.07-.19,9.78,9.78,0,0,1,5.21-3.76,34.55,34.55,0,0,1,6.19-1.36,31.68,31.68,0,0,1,6.31-.12,24.71,24.71,0,0,1,6.14,1.24.69.69,0,0,1,.43.87A.67.67,0,0,1,604.08,303.16Z"/><path class="cls-2" d="M653.24,333.4c-1.5-1.35-3-2.66-4.44-3.92s-3-2.43-4.56-3.55-3.15-2.17-4.79-3.15a15.47,15.47,0,0,1-4.55-4h0a.43.43,0,0,1,.09-.61.42.42,0,0,1,.18-.08,9.72,9.72,0,0,1,6.27,1.23,34.72,34.72,0,0,1,5.18,3.56,31.83,31.83,0,0,1,4.38,4.46,24.93,24.93,0,0,1,3.32,5.26.69.69,0,0,1-.33.91A.7.7,0,0,1,653.24,333.4Z"/></g></g></g><g id="Layer_1" data-name="Layer 1"><path id="Dark_Stomach_Notch" data-name="Dark Stomach Notch" class="cls-2" d="M206.3,233.9a18.72,18.72,0,0,0,8.43,6.22c4.19,1.52-48.76.74-48.76.74l3.7-8.89Z"/><g id="Pins"><path d="M347,74a5.32,5.32,0,0,0-7,2.56,6,6,0,0,0-.66,2.27l-71.05,35,.27.59L340.68,83a4.64,4.64,0,0,0,1.11.84A5.57,5.57,0,0,0,347,74Z"/><path d="M314.55,205.58a5.32,5.32,0,0,0-6.25,4.15,6,6,0,0,0,0,3l-54.89,58.59.46.45,57.32-55.69a6.37,6.37,0,0,0,.61.23,5.58,5.58,0,0,0,2.71-10.77Z"/><path d="M354.38,309.69a5.31,5.31,0,0,0-6.24,4.15,5.55,5.55,0,0,0-.17,1.44l-69.61,34.25.27.59,70.95-30.86a4.71,4.71,0,0,0,2.09,1.2,5.58,5.58,0,0,0,2.71-10.77Z"/><path d="M171,449.52l-47.85-62.13a5.73,5.73,0,0,0,.34-1,5.07,5.07,0,1,0-6.25,4.15,4.65,4.65,0,0,0,2.79-.17l50.47,59.51Z"/><path d="M137.37,295.31,64.58,266.84A5.23,5.23,0,0,0,60.92,261a5.58,5.58,0,0,0-2.71,10.77,4.86,4.86,0,0,0,4.32-1.06l74.62,25.21Z"/><path d="M111.54,68.8A5.32,5.32,0,0,0,105.29,73a5.72,5.72,0,0,0,.71,4.51L64.89,146.59l.54.34L109.82,79.7a5.43,5.43,0,0,0,5.26-4.28A5.32,5.32,0,0,0,111.54,68.8Z"/><path d="M156.31,105,128.8,32.37a4.53,4.53,0,0,0,.56-.6,5.31,5.31,0,0,0-1.46-7.36,5.31,5.31,0,0,0-7.46.75,5.31,5.31,0,0,0,1.46,7.36,5.87,5.87,0,0,0,2.77,1.11l31,71.57Z"/></g><path id="Dark_Stitchy_Body" data-name="Dark Stitchy Body" class="cls-2" d="M264.65,325a55.49,55.49,0,0,0,2.07-11.38c2.39-31.94-22.6-61.18-58-70.78l-2.56-.27-.8-.08-2-.19-.89-.08-2.16-.19-.74-.06-3-.24-.22,0c-1.5-.11-3-.21-4.61-.3-2.1-.13-4.25-.23-6.44-.32h0l-3.05-.1-.76,0-2.39-.05h-1l-2.17,0h-1.15l-2.11,0H171.4l-2.24,0-1,0c-1.09,0-2.17.06-3.26.11l.16,0,.11,0h0l.78-.17h0c1.43-3.54,14.51-10.23,14.53-10.23,1.56-.06,6.89-.67,8.45-.66-2.53-3.44,7.85-1,6.32-5.95,9.25-.51,51.73-1.35,69.12,24.87,19.57,29.5,36.28,39.41,50.92,27.54,9.5-7.55,21.63-61.28-59.48-73.57-31-4.68-51.29-3.21-64.63.41-.49-4.27-.79-8.3-1-11.77,2.86.43,5.76.78,8.7,1,55.71,4.72,104.41-16.78,107.23-66.44,2.36-41.51-38.79-78.84-94.5-83.57S108,67.54,104.43,109c-2.13,25.15,12.63,48.82,37,64.6A283.61,283.61,0,0,0,129,201.18c-22.36-21.06-49.59-53.59-58.92-93.42a47.87,47.87,0,0,1-19.29,7.7c-1,.16-1.93.29-2.9.39-2.91.29-14.53-4.8-17.23-6A48,48,0,0,1,24,106c-.71,2.85,3.82,14,3.82,14.95,20.83,64.67,59.58,95.52,90.45,114.32a284.7,284.7,0,0,0-8.48,59.8q-.23,1.68-.36,3.39C107.63,322,120.71,344,141.85,357.84c-6.68,53.5,3.81,91.21,14.94,109.91,12.75,21.42,57.1,22,75.05,12.55,3.15-1.66,9.33-5.42,10.22-11.21,5.49-11.56-14.58-26.74-35.39-43.73-13.68-11.17-22.3-34.58-27.32-53.68,1.25.17,2.5.32,3.76.44a92.46,92.46,0,0,0,22.69-.58,87.09,87.09,0,0,0,13.72-3.23,74.94,74.94,0,0,0,29.61-17.65c11.4,5.75,26.61,17.26,13.39,34-19.66,24.85-26.18,41.83-10.46,49.69s60.67,9,64.69-6.2C320.62,413.49,343.28,349.67,264.65,325Z"/><path id="Red_Stitchy_Body" data-name="Red Stitchy Body" class="cls-3" d="M269.65,322a55.49,55.49,0,0,0,2.07-11.38c2.39-31.94-22.6-61.18-58-70.78l-2.56-.27-.8-.08-2-.19-.89-.08-2.16-.19-.74-.06-3-.24-.22,0c-1.5-.11-3-.21-4.61-.3-2.1-.13-4.25-.23-6.44-.32h0l-3.05-.1-.76,0-2.39-.05h-1l-2.17,0h-1.15l-2.11,0H176.4l-2.24,0-1,0c-1.09,0-2.17.06-3.26.11l.16,0,.11,0h0l.78-.17h0a205.51,205.51,0,0,1,21.39-3.24h.08c2.95-.28,6-.5,9.13-.62h.06c1.56-.06,3.12-.09,4.67-.09a43.55,43.55,0,0,1-6-12.88c9.25-.51,51.73-1.35,69.12,24.87,19.57,29.5,34.58,37.84,45.45,30.87s27.1-64.61-54-76.9c-30.95-4.68-51.29-3.21-64.63.41-.49-4.27-.79-8.3-1-11.77,2.86.43,5.76.78,8.7,1,55.71,4.72,104.41-16.78,107.23-66.44,2.36-41.51-38.79-78.84-94.5-83.57S113,64.54,109.43,106c-2.13,25.15,12.63,48.82,37,64.6A283.61,283.61,0,0,0,134,198.18c-22.36-21.06-49.59-53.59-58.92-93.42a47.87,47.87,0,0,1-19.29,7.7c-1,.16-1.93.29-2.9.39a48.82,48.82,0,0,1-8.89.07,48.18,48.18,0,0,1-13.34-3.09c16.23,65.82,61.66,103.65,92.53,122.45a284.7,284.7,0,0,0-8.48,59.8q-.23,1.68-.36,3.39C112.63,319,125.71,341,146.85,354.84c-6.68,53.5,3.81,91.21,14.94,109.91,12.75,21.42,55.63,21.15,73.57,11.72s1.56-33.5-23.69-54.11c-13.68-11.17-22.3-34.58-27.32-53.68,1.25.17,2.5.32,3.76.44a92.46,92.46,0,0,0,22.69-.58,87.09,87.09,0,0,0,13.72-3.23,74.94,74.94,0,0,0,29.61-17.65c11.4,5.75,26.61,17.26,13.39,34-19.66,24.85-26.18,41.83-10.46,49.69s56,10.88,60.05-4.28C321,412.42,348.28,346.67,269.65,322Z"/><path id="Stitchy_Throwing_Hand" data-name="Stitchy Throwing Hand" class="cls-2" d="M47.61,57.15A58.22,58.22,0,0,0,59.24,55l1.24-.36C78.69,49,95,32.07,91.16,17.51,88.6,6.11,72.26-6.5,29.24,4.18,28,4.49,4.46,11.34,10.47,29.25,15.48,41.83,23.58,59,47.61,57.15Z"/><path id="Stitchy_Throwing_Hand-2" data-name="Stitchy Throwing Hand" class="cls-3" d="M49.15,52.11A58.12,58.12,0,0,0,60.77,50L62,49.61c18.22-5.67,32-19.5,29.15-32.1C88.6,6.11,72.8-6.67,29.78,4,28.52,4.32,7,11.63,12,24.21S25.11,54,49.15,52.11Z"/><path id="Dark_X_Eye" data-name="Dark X Eye" class="cls-2" d="M286.13,117.11a59.82,59.82,0,0,0-5.64-10.83l.92-1.82c1-2.1,2-4.21,2.9-6.33,1.79-4.27,6-8.26,7.48-12.65l-2.08.34c-2.31,4-5.57,7.07-8,10.92-1.21,1.93-2.44,3.85-3.71,5.74l0,0-.5-.7C274,97.1,270.53,92.45,266.9,88s-4.74-8.39-8.69-12.6c-.19-.21-1.73-.75-2-.57s-.89.56-.71.8l.25,1c3.49,4.53,5.71,8.21,8.86,13a144.29,144.29,0,0,1,8.69,14.7c.48,1,.94,1.93,1.41,2.89l-.63.91c-1.31,1.84-2.74,3.59-4.2,5.28s-2.78,3.44-4.07,5.19-2.57,3.49-3.94,5.13a19.74,19.74,0,0,1-4.81,4.39l.08.6c1.23.23,2.65.77,3.89.42.31-.08.56-.81.87-.91l.89-.35a13,13,0,0,0,1.72-.84,27.12,27.12,0,0,0,5.84-4.52,28.64,28.64,0,0,0,4.37-5.66c.88-1.48,1.69-3,2.5-4.48,1.14,2.38,2.26,4.75,3.38,7.1s2.3,5,3.37,7.54,3.13,7.62,3.36,8,.28.46.47.52,2.8.51,2.89.2c.87-3-1.86-6.88-2.27-9.87A40,40,0,0,0,286.13,117.11Z"/><path id="White_X_Eye" data-name="White X Eye" class="cls-1" d="M289.15,117.63a60.2,60.2,0,0,0-5.63-10.84l.92-1.81c1-2.1,2-4.21,2.9-6.33,1.79-4.27,3.54-8.54,5-12.93l-.55-.24c-2.32,4-4.63,7.93-7.11,11.77-1.21,1.94-2.44,3.86-3.71,5.75l0,0-.5-.7C277,97.62,273.56,93,269.92,88.48s-7.39-8.86-11.33-13.07a.56.56,0,0,0-.86.72h0c3.49,4.53,6.79,9.22,9.94,14a144.29,144.29,0,0,1,8.69,14.7c.48,1,.93,1.93,1.41,2.89-.22.3-.42.61-.64.91-1.31,1.84-2.73,3.59-4.19,5.28s-2.79,3.44-4.08,5.19-2.57,3.49-3.94,5.13a19.75,19.75,0,0,1-4.81,4.39l.09.6A8.68,8.68,0,0,0,264,129c.31-.08.63-.17.94-.27l.89-.35a12.33,12.33,0,0,0,1.71-.84,26.94,26.94,0,0,0,5.85-4.52,28.36,28.36,0,0,0,4.36-5.67c.88-1.47,1.69-3,2.5-4.47,1.14,2.38,2.26,4.74,3.38,7.09,1.16,2.51,2.3,5,3.37,7.55A80.57,80.57,0,0,1,290,135.4h0a.59.59,0,0,0,.39.38.58.58,0,0,0,.71-.39,21.8,21.8,0,0,0,.41-9.09A40.6,40.6,0,0,0,289.15,117.63Z"/><g id="Small_Ball_Group" data-name="Small Ball Group"><path id="Small_Ball" data-name="Small Ball" class="cls-2" d="M88.41,36c-4.73,12.22-22.1,23.34-41.1,24.81-24,1.87-32.13-15.32-37.14-27.9-.05-.11-.07-.23-.12-.34A48,48,0,1,0,88.41,36Z"/><g id="Small_Ball_Texture" data-name="Small Ball Texture"><path class="cls-1" d="M26.07,73.12A14.81,14.81,0,0,1,30.68,77a16.45,16.45,0,0,1,1.67,2.55,7,7,0,0,1,.82,2.94.11.11,0,0,1-.1.1.1.1,0,0,1-.08,0A24.8,24.8,0,0,1,31.47,80a19.23,19.23,0,0,0-1.55-2.43,22.55,22.55,0,0,0-4-4.19.18.18,0,0,1,0-.24A.19.19,0,0,1,26.07,73.12Z"/><path class="cls-1" d="M31.94,76.59c.72.44,1.39.91,2,1.4l1,.74a2.26,2.26,0,0,1,.75,1,.12.12,0,0,1-.07.15h0a2,2,0,0,1-1.25-.4c-.34-.26-.67-.51-1-.79a9.72,9.72,0,0,1-1.66-1.9.18.18,0,0,1,.05-.24A.17.17,0,0,1,31.94,76.59Z"/><path class="cls-1" d="M27.34,71.91c1.7.89,3.32,2,4.95,2.88a12.55,12.55,0,0,0,2.53,1.09,15.66,15.66,0,0,1,2.68,1,.09.09,0,0,1,0,.13.08.08,0,0,1-.07,0,7.24,7.24,0,0,1-2.93-.23,10.62,10.62,0,0,1-2.73-1.21A27.3,27.3,0,0,1,29.42,74c-.77-.58-1.53-1.17-2.27-1.79a.16.16,0,0,1,0-.23.16.16,0,0,1,.2,0Z"/><path class="cls-1" d="M28.51,70.48A14.71,14.71,0,0,0,33.92,73a13.92,13.92,0,0,0,2.94.37c1,0,2,0,3,.06a.11.11,0,0,1,.09.1.08.08,0,0,1-.05.08,6.18,6.18,0,0,1-3.09.76,12.56,12.56,0,0,1-3.17-.44,11.37,11.37,0,0,1-5.4-3.2.17.17,0,0,1,0-.24A.17.17,0,0,1,28.51,70.48Z"/><path class="cls-1" d="M44.2,77a16.81,16.81,0,0,1-2,5.67c-.47.88-1,1.73-1.56,2.56a9.39,9.39,0,0,1-2,2.22.09.09,0,0,1-.13,0,.1.1,0,0,1,0-.09,11.48,11.48,0,0,1,1.33-2.67c.54-.82,1.05-1.65,1.55-2.48a28.86,28.86,0,0,0,2.49-5.27.18.18,0,0,1,.22-.11A.18.18,0,0,1,44.2,77Z"/><path class="cls-1" d="M43.51,83.2c-.12.88-.28,1.72-.43,2.55L42.85,87a2.66,2.66,0,0,1-.57,1.22.12.12,0,0,1-.16,0l0,0a2.18,2.18,0,0,1-.23-1.37c.08-.44.16-.87.28-1.3a8.85,8.85,0,0,1,1-2.45.18.18,0,0,1,.24-.06A.2.2,0,0,1,43.51,83.2Z"/><path class="cls-1" d="M46.11,77.53c-.08,1-.19,2-.31,3s-.25,2-.27,3a22.22,22.22,0,0,0,.09,2.94,22.86,22.86,0,0,1,.13,3,.09.09,0,0,1-.1.09.1.1,0,0,1-.08,0,7.35,7.35,0,0,1-.94-3,17.71,17.71,0,0,1-.06-3.09,19.06,19.06,0,0,1,.47-3c.22-1,.47-2,.74-3a.18.18,0,0,1,.21-.12A.16.16,0,0,1,46.11,77.53Z"/><path class="cls-1" d="M47.94,78.25a21,21,0,0,0,.12,4.84,15.85,15.85,0,0,0,.64,2.31,9.13,9.13,0,0,1,.53,2.44.1.1,0,0,1-.1.1.09.09,0,0,1-.07,0,6.48,6.48,0,0,1-1.3-2.18,12.92,12.92,0,0,1-.65-2.48,9.29,9.29,0,0,1,0-2.58,16.9,16.9,0,0,1,.51-2.47.17.17,0,0,1,.21-.12A.16.16,0,0,1,47.94,78.25Z"/><path class="cls-1" d="M31.29,86.88a14.81,14.81,0,0,0,3.3,4.21,13.64,13.64,0,0,0,2.15,1.55c.76.46,1.53.88,2.32,1.43a.09.09,0,0,1,0,.13.08.08,0,0,1-.07,0,5.45,5.45,0,0,1-2.76-.75,11.66,11.66,0,0,1-2.31-1.7A10.67,10.67,0,0,1,31,87a.16.16,0,0,1,.11-.21A.18.18,0,0,1,31.29,86.88Z"/><path class="cls-1" d="M39,96.39a6.06,6.06,0,0,1-3.2-.88A29.53,29.53,0,0,1,32.9,94a18.57,18.57,0,0,1-2.65-2,6.82,6.82,0,0,1-1.89-2.72.09.09,0,0,1,.06-.12.09.09,0,0,1,.09,0c.86.71,1.61,1.41,2.4,2.09a23.61,23.61,0,0,0,2.51,1.9c.88.59,1.79,1.14,2.71,1.69A6.68,6.68,0,0,0,39,96.05h0a.18.18,0,0,1,.16.18A.17.17,0,0,1,39,96.39Z"/><path class="cls-1" d="M32.2,95.38a6.3,6.3,0,0,1-2.12-.7,9.37,9.37,0,0,1-.95-.59,1.61,1.61,0,0,1-.64-1,.11.11,0,0,1,.09-.14h0a1.93,1.93,0,0,1,1.1.31l.87.58c.58.38,1.17.78,1.75,1.22a.18.18,0,0,1,0,.25A.17.17,0,0,1,32.2,95.38Z"/><path class="cls-1" d="M38.43,98.68a7.21,7.21,0,0,0-2.82-.52,20.39,20.39,0,0,0-2.93.06,9.6,9.6,0,0,0-2.76.66,16.78,16.78,0,0,0-2.57,1.3.1.1,0,0,1-.13,0,.09.09,0,0,1,0-.09A4.5,4.5,0,0,1,29.54,98a9.39,9.39,0,0,1,3.06-.7,14.92,14.92,0,0,1,3.07.14,6.21,6.21,0,0,1,2.93,1,.17.17,0,0,1,0,.24A.16.16,0,0,1,38.43,98.68Z"/><path class="cls-1" d="M37.52,100.54a2.92,2.92,0,0,0-2-.43,10.11,10.11,0,0,0-2.12.36,9.43,9.43,0,0,0-2,.82c-.64.33-1.24.69-2,1a.1.1,0,0,1-.13-.05.11.11,0,0,1,0-.08A3.87,3.87,0,0,1,31,100.42a8.37,8.37,0,0,1,2.22-.88,7.87,7.87,0,0,1,2.37-.2,3,3,0,0,1,2.22,1,.17.17,0,0,1,0,.24.17.17,0,0,1-.2,0Z"/><path class="cls-1" d="M28.25,84.78a40,40,0,0,0-3.47,4.47c-.51.79-1,1.58-1.45,2.41a15.36,15.36,0,0,1-1.56,2.4.09.09,0,0,1-.13,0,.11.11,0,0,1,0-.09,7.37,7.37,0,0,1,.86-2.8A20.9,20.9,0,0,1,24,88.71a18.86,18.86,0,0,1,4-4.18.16.16,0,0,1,.23,0A.15.15,0,0,1,28.25,84.78Z"/><path class="cls-1" d="M25.26,84.14c-.88,1.43-1.82,2.8-2.62,4.22a19.05,19.05,0,0,0-1.08,2.17,20.37,20.37,0,0,1-1.06,2.23.09.09,0,0,1-.13,0s0,0-.05-.07a4.8,4.8,0,0,1,.32-2.57,13.72,13.72,0,0,1,1.17-2.29A23.85,23.85,0,0,1,25,83.93a.17.17,0,0,1,.24,0A.17.17,0,0,1,25.26,84.14Z"/><path class="cls-1" d="M22.08,82.24a8.93,8.93,0,0,1-.16,2.68,10,10,0,0,1-.35,1.3,2.16,2.16,0,0,1-.82,1.12.11.11,0,0,1-.16,0s0,0,0,0a2.54,2.54,0,0,1,.05-1.35L21,84.69c.23-.82.47-1.64.75-2.49a.18.18,0,0,1,.22-.11A.19.19,0,0,1,22.08,82.24Z"/><path class="cls-1" d="M19.06,82.76a15.91,15.91,0,0,1,.24,5.11,16.69,16.69,0,0,1-.46,2.54,6,6,0,0,1-1.14,2.33.11.11,0,0,1-.14,0,.09.09,0,0,1,0-.08,11.87,11.87,0,0,1,.36-2.5c.19-.8.34-1.61.47-2.42a35.42,35.42,0,0,0,.37-5,.18.18,0,0,1,.17-.17A.18.18,0,0,1,19.06,82.76Z"/><path class="cls-1" d="M15.4,83.25a3.89,3.89,0,0,1,1.26,2.24A14.2,14.2,0,0,1,16.91,88a22.75,22.75,0,0,1-.09,2.48,5.76,5.76,0,0,1-.72,2.39.1.1,0,0,1-.13,0,.12.12,0,0,1-.05-.07,10.09,10.09,0,0,1-.09-2.44c.07-.8.09-1.6.12-2.4s0-1.6,0-2.36a4,4,0,0,0-.74-2.13.15.15,0,0,1,0-.23A.18.18,0,0,1,15.4,83.25Z"/><path class="cls-1" d="M16.85,67.41a11.32,11.32,0,0,1-2.91,4.47,13.46,13.46,0,0,1-2.15,1.62,7.2,7.2,0,0,1-2.48,1,.1.1,0,0,1-.12-.08.11.11,0,0,1,0-.08,9.85,9.85,0,0,1,2-1.65,18,18,0,0,0,2-1.48,17.36,17.36,0,0,0,3.24-3.91.18.18,0,0,1,.24-.05A.19.19,0,0,1,16.85,67.41Z"/><path class="cls-1" d="M18.5,68.5a35.56,35.56,0,0,1-3.18,5.1,21.62,21.62,0,0,1-2,2.29,6.92,6.92,0,0,1-2.56,1.68.09.09,0,0,1-.12-.06.1.1,0,0,1,0-.09,23.58,23.58,0,0,1,1.95-2.23c.69-.69,1.32-1.43,2-2.19,1.24-1.51,2.4-3.12,3.65-4.68a.16.16,0,0,1,.24,0A.17.17,0,0,1,18.5,68.5Z"/><path class="cls-1" d="M20.64,69.38a26.35,26.35,0,0,0-1.53,4.89,21.23,21.23,0,0,0-.36,2.52,14.84,14.84,0,0,1-.42,2.56.11.11,0,0,1-.12.07.13.13,0,0,1-.07-.06,6,6,0,0,1-.39-2.65,17,17,0,0,1,.42-2.65,14,14,0,0,1,2.18-4.84.17.17,0,0,1,.29.16Z"/><path class="cls-1" d="M21.91,70.29a14,14,0,0,0-.63,4.33,13,13,0,0,0,.23,2.15A15,15,0,0,1,21.79,79a.1.1,0,0,1-.1.1.08.08,0,0,1-.07,0A4.15,4.15,0,0,1,20.53,77a10.28,10.28,0,0,1-.21-2.35,9,9,0,0,1,1.28-4.45.17.17,0,0,1,.31.13Z"/><path class="cls-1" d="M17.89,52.92A8.53,8.53,0,0,0,18,58.45a27.22,27.22,0,0,0,1,2.7A12.42,12.42,0,0,1,19.82,64a.11.11,0,0,1-.09.11.11.11,0,0,1-.08,0,9.3,9.3,0,0,1-1.56-2.54,19.29,19.29,0,0,1-1-2.83,10.48,10.48,0,0,1-.37-3,5.65,5.65,0,0,1,.85-2.92.17.17,0,0,1,.23-.06A.2.2,0,0,1,17.89,52.92Z"/><path class="cls-1" d="M14.33,59.66a7,7,0,0,0-.88-1c-.32-.34-.66-.67-1-1a9.59,9.59,0,0,1-.91-1.15,1.66,1.66,0,0,1-.22-1.58.11.11,0,0,1,.14-.05l0,0,0,0a12.07,12.07,0,0,1,.85,1c.25.37.55.72.83,1.1a12.76,12.76,0,0,1,.84,1.16,3.91,3.91,0,0,1,.6,1.4.17.17,0,0,1-.14.19.17.17,0,0,1-.17-.07Z"/><path class="cls-1" d="M15.92,66.53a7.08,7.08,0,0,0-1.46-2.47,19.29,19.29,0,0,0-2-2.17,9.75,9.75,0,0,0-2.3-1.66,18.25,18.25,0,0,0-2.66-1.09A.1.1,0,0,1,7.47,59,.09.09,0,0,1,7.54,59a4.45,4.45,0,0,1,3.1.38,9.56,9.56,0,0,1,2.54,1.86,15.68,15.68,0,0,1,1.91,2.41,6.26,6.26,0,0,1,1.16,2.87.17.17,0,0,1-.16.18A.16.16,0,0,1,15.92,66.53Z"/><path class="cls-1" d="M13.92,67.06a2.86,2.86,0,0,0-1-1.77,9.83,9.83,0,0,0-1.66-1.37,9.31,9.31,0,0,0-1.92-1,20.87,20.87,0,0,1-2-.85A.1.1,0,0,1,7.27,62a.15.15,0,0,1,.06,0,3.87,3.87,0,0,1,2.38.1,7.78,7.78,0,0,1,2.12,1.1,7.65,7.65,0,0,1,1.7,1.66,3,3,0,0,1,.72,2.31.17.17,0,0,1-.33,0Z"/><path class="cls-1" d="M45.82,94.1a3.8,3.8,0,0,1-.25,2.55,12.57,12.57,0,0,1-1.22,2.19,21.82,21.82,0,0,1-1.48,2,5.94,5.94,0,0,1-2,1.54.1.1,0,0,1-.13,0,.14.14,0,0,1,0-.09,9.73,9.73,0,0,1,1.32-2c.51-.61,1-1.25,1.47-1.9a21.7,21.7,0,0,0,1.31-2,3.87,3.87,0,0,0,.61-2.16.18.18,0,0,1,.16-.18A.17.17,0,0,1,45.82,94.1Z"/><path class="cls-1" d="M24.92,74.72a12.24,12.24,0,0,1,3.86,3.55,13.83,13.83,0,0,1,1.32,2.3,5.4,5.4,0,0,1,.5,2.61.08.08,0,0,1-.1.08.09.09,0,0,1-.08,0A17.65,17.65,0,0,1,29.19,81,16.56,16.56,0,0,0,28,78.81,20,20,0,0,0,24.72,75a.17.17,0,0,1,0-.24A.17.17,0,0,1,24.92,74.72Z"/><path class="cls-1" d="M42.48,76.89a17.13,17.13,0,0,1-2.23,5.26,10.7,10.7,0,0,1-2,2.18,5.41,5.41,0,0,1-2.63,1.25.1.1,0,0,1-.11-.08.11.11,0,0,1,0-.08c.7-.69,1.39-1.25,2.06-1.85a11.78,11.78,0,0,0,1.83-2,33.13,33.13,0,0,0,2.69-4.83.18.18,0,0,1,.23-.08A.18.18,0,0,1,42.48,76.89Z"/><path class="cls-1" d="M17.31,73.66c-.27.77-.5,1.5-.7,2.23-.09.37-.19.74-.26,1.11a2.38,2.38,0,0,1-.52,1.11.11.11,0,0,1-.16,0l0,0a1.77,1.77,0,0,1-.27-1.28,7.41,7.41,0,0,1,.32-1.23A5.63,5.63,0,0,1,17,73.48a.17.17,0,0,1,.24,0A.16.16,0,0,1,17.31,73.66Z"/></g></g><g id="Button"><ellipse class="cls-2" cx="196.03" cy="87.68" rx="40.45" ry="36.77" transform="translate(63.16 256.38) rotate(-75.87)"/><ellipse class="cls-1" cx="201.03" cy="87.2" rx="40.45" ry="36.77" transform="translate(67.39 260.87) rotate(-75.87)"/><ellipse class="cls-2" cx="201.59" cy="87.24" rx="37.33" ry="33.94" transform="translate(67.78 261.43) rotate(-75.87)"/><ellipse class="cls-2" cx="200.3" cy="87.68" rx="37.33" ry="33.94" transform="translate(66.38 260.52) rotate(-75.87)"/><ellipse class="cls-1" cx="203.43" cy="87.2" rx="32.45" ry="29.5" transform="translate(69.21 263.2) rotate(-75.87)"/><ellipse class="cls-2" cx="200.3" cy="75.77" rx="5.55" ry="5.05" transform="translate(77.93 251.52) rotate(-75.87)"/><ellipse class="cls-2" cx="196.03" cy="91.76" rx="5.55" ry="5.05" transform="translate(59.19 259.46) rotate(-75.87)"/><ellipse class="cls-2" cx="213.13" cy="81.11" rx="5.55" ry="5.05" transform="translate(82.45 268) rotate(-75.87)"/><ellipse class="cls-2" cx="209.01" cy="98.29" rx="5.55" ry="5.05" transform="translate(62.67 276.99) rotate(-75.87)"/><path class="cls-2" d="M197.5,60.32a41.53,41.53,0,0,0-9,8.52,32.31,32.31,0,0,0-5.38,10.42A43.45,43.45,0,0,0,180.94,91c-.21,4.07.07,8.34-.1,12.72A41.88,41.88,0,0,1,177,91.18a29.14,29.14,0,0,1-.09-6.8,33.42,33.42,0,0,1,1.45-6.64,26.05,26.05,0,0,1,7.28-11.55,24.7,24.7,0,0,1,5.57-3.84A19.53,19.53,0,0,1,197.5,60.32Z"/></g><g id="Highlight_Lines" data-name="Highlight Lines"><path id="Back_of_Head_Line" data-name="Back of Head Line" class="cls-2" d="M159.26,57.22A104.26,104.26,0,0,0,147,65.05a86.19,86.19,0,0,0-10.84,9.37c-6.58,6.78-11.71,15-13.47,24-.23,1.13-.35,2.31-.54,3.46l-.26,1.73c0,.58-.06,1.17-.1,1.75-.06,1.16-.19,2.33-.19,3.49l.07,3.51A62.62,62.62,0,0,0,124,126.19a73.1,73.1,0,0,0,13.38,25.27h0a.24.24,0,0,1-.33.33,42,42,0,0,1-5.35-5.15,67.11,67.11,0,0,1-4.61-5.86,60.24,60.24,0,0,1-6.9-13.34,55.49,55.49,0,0,1-2.43-30A45.41,45.41,0,0,1,120,90a46.86,46.86,0,0,1,3.53-6.87,55.23,55.23,0,0,1,9.83-11.57,71.94,71.94,0,0,1,12.14-8.76,69.38,69.38,0,0,1,13.54-6,.25.25,0,0,1,.31.16.24.24,0,0,1-.12.29Z"/><path id="Backside_Line" data-name="Backside Line" class="cls-2" d="M130.76,253.35c-1.39,4.94-2.56,9.92-3.47,14.93a137.8,137.8,0,0,0-2,15.05c-.72,10-.17,20.18,3,29.42A68.79,68.79,0,0,0,144,337.68c1.73,1.81,3.57,3.51,5.47,5.15s3.88,3.21,5.93,4.68a75.28,75.28,0,0,0,6.35,4.15c1.09.64,2.2,1.26,3.34,1.82a28.14,28.14,0,0,0,3.48,1.51h0a.28.28,0,0,1-.14.54,33.12,33.12,0,0,1-7.5-2.26,65.39,65.39,0,0,1-7-3.44,71.68,71.68,0,0,1-12.72-9.24,63.8,63.8,0,0,1-17.6-26.22,57.86,57.86,0,0,1-3-15.71,81.25,81.25,0,0,1,.73-15.76,103.33,103.33,0,0,1,3.34-15.25,94.19,94.19,0,0,1,5.61-14.49.23.23,0,0,1,.31-.1.22.22,0,0,1,.12.27Z"/></g><g id="Dark_Stitches" data-name="Dark Stitches"><path class="cls-2" d="M224.5,363.87a1,1,0,0,0-.28-.92,3.12,3.12,0,0,0-2.16-.89,2.94,2.94,0,0,0-1.27.28c-2,.89-3.94,1.69-5.44,2.29l-1,.41c-.58.22-1.15.45-1.74.66l-1.23.47c-.56.2-1.12.41-1.69.64a1,1,0,0,0-.58,1.22,1,1,0,0,0,1,.7.75.75,0,0,0,.21,0,86.83,86.83,0,0,0,13.65-4.12A1,1,0,0,0,224.5,363.87Z"/><path class="cls-2" d="M185.11,199.76c-.16,1-.32,2-.49,3.16v.1a2,2,0,0,0,1.84,2.18h.17a2,2,0,0,0,2-1.84c.09-1.09.18-2.07.3-3.06.06-.59.14-1.16.22-1.73s.12-.89.17-1.34c.28-2.05.6-4.1,1-6.06a1.48,1.48,0,0,0-.94-1.65,1.43,1.43,0,0,0-.5-.09h0a1.47,1.47,0,0,0-1.37,1,51.55,51.55,0,0,0-1.75,6.2C185.49,197.63,185.31,198.64,185.11,199.76Z"/><path class="cls-2" d="M188.8,221.94a2,2,0,0,0-.55.07,2.16,2.16,0,0,0-1.3,1,2.11,2.11,0,0,0-.22,1.63,45,45,0,0,0,1.88,5.68,35.06,35.06,0,0,0,2.74,5.49v0l0,0,.33.5.57-.09,3.3-.26,2-.13-1.28-1.51c-.4-.48-.71-.87-1-1.25a28.77,28.77,0,0,1-2.57-4.58,41.35,41.35,0,0,1-1.88-5.07A2.16,2.16,0,0,0,188.8,221.94Z"/><path class="cls-2" d="M192.53,237l1.54,1.8a58,58,0,0,0,5.14,5.21h0l.05,0a2.53,2.53,0,0,0,1.63.61,2.57,2.57,0,0,0,2.09-1.12,2.91,2.91,0,0,0-.47-3.83c-.8-.69-1.52-1.32-2.19-1.94l-.25-.24-.35,0c-1.55-.12-3.17-.24-4.84-.35Z"/><path class="cls-2" d="M239.16,269a88.91,88.91,0,0,0-8.74-7.85c-2.72-2.15-5.68-4.33-9.31-6.88a2.55,2.55,0,0,0-1.46-.46h0a2.56,2.56,0,0,0-2.06,1.06,2.53,2.53,0,0,0-.45,1.89,2.56,2.56,0,0,0,1,1.65c3.41,2.46,6.31,4.71,8.85,6.88a110.53,110.53,0,0,1,8.11,7.58,2.79,2.79,0,1,0,4-3.87Z"/><path class="cls-2" d="M255.6,299.69a53.38,53.38,0,0,0-3.22-11.6,2.82,2.82,0,0,0-2.61-1.75,2.74,2.74,0,0,0-1.06.2,2.81,2.81,0,0,0-1.55,3.67A47.76,47.76,0,0,1,250,300.57a54.5,54.5,0,0,1,.64,10.82,2.77,2.77,0,0,0,2.63,2.87h.13a2.76,2.76,0,0,0,2.76-2.63A59.85,59.85,0,0,0,255.6,299.69Z"/><path class="cls-2" d="M250.68,330.43a2.51,2.51,0,0,0-.72-.11h0a2.67,2.67,0,0,0-2.55,1.92c-.49,1.71-1,3.47-1.68,5.26s-1.31,3.55-2,5.11a46.37,46.37,0,0,1-2.54,4.84,37.7,37.7,0,0,1-3.17,4.43,2,2,0,1,0,3.08,2.53c1.15-1.42,2.29-3,3.51-4.75s2.26-3.45,3.13-5a57.18,57.18,0,0,0,2.67-5.3,54.48,54.48,0,0,0,2.09-5.57h0l0-.07A2.63,2.63,0,0,0,250.68,330.43Z"/><path class="cls-2" d="M204.05,41.13a44.69,44.69,0,0,1,6,1,55.09,55.09,0,0,1,5.88,1.64,54,54,0,0,1,11,5.08h0l.06,0a1.69,1.69,0,0,0,.8.2,1.67,1.67,0,0,0,.79-3.13,55,55,0,0,0-5.79-2.81A48.35,48.35,0,0,0,216.73,41a51.08,51.08,0,0,0-12.62-2h-.05a1,1,0,0,0,0,2.07Z"/><path class="cls-2" d="M248.17,87.63v.09a2.23,2.23,0,0,0,2.22,2.06h.16a2.21,2.21,0,0,0,2.05-2.38,69,69,0,0,0-2.08-12.71,52,52,0,0,0-4.82-12,1.75,1.75,0,0,0-1.54-.9h0A1.77,1.77,0,0,0,242.49,63a1.73,1.73,0,0,0,.12,1.34C246,70.91,247.86,78.74,248.17,87.63Z"/><path class="cls-2" d="M239.43,137.43a2,2,0,0,0,2.63-.92,119.89,119.89,0,0,0,4.9-11.75,97.25,97.25,0,0,0,3.48-12.31,2.38,2.38,0,0,0-1.88-2.82,2.3,2.3,0,0,0-.45,0,2.37,2.37,0,0,0-2.33,1.93,119.23,119.23,0,0,1-2.95,11.89,89.53,89.53,0,0,1-4.33,11.43A2,2,0,0,0,239.43,137.43Z"/><path class="cls-2" d="M227.29,155.49h0a1.93,1.93,0,0,0-1.47.68,75.17,75.17,0,0,1-18.49,15.72,2,2,0,0,0,2,3.37,78.65,78.65,0,0,0,19.42-16.58,1.94,1.94,0,0,0-1.47-3.19Z"/><path class="cls-2" d="M191.57,179.38l.08,0c1.28-.32,2-1.36,1.69-2.33a2.66,2.66,0,0,0-3-1.18c-2.12.52-4.3,1-6.41,1.53l-3,.71a1.53,1.53,0,0,0-1.31,1.37,1.15,1.15,0,0,0,.52.92,2,2,0,0,0,1.24.34c.94-.05,1.92-.12,2.89-.21a70.46,70.46,0,0,0,7.26-1.12Z"/><path class="cls-2" d="M177.1,388c-.31-1.51-.59-3.05-.85-4.54-.1-.52-.19-1-.28-1.55-.32-1.81-.64-3.81-1-6.11-.27-1.81-.51-3.75-.77-6.13a1.65,1.65,0,0,0-1.63-1.47h0a1.64,1.64,0,0,0-1.61,1.67c0,2.08.18,4.1.36,6.34s.43,4.29.69,6.3c.5,3.81,1.22,7.89,2.2,12.47a2.16,2.16,0,0,0,2.11,1.71,2.07,2.07,0,0,0,.5-.06,2.17,2.17,0,0,0,1.61-2.6C178,392.21,177.52,390.09,177.1,388Z"/><path class="cls-2" d="M202.44,435.37l-1.31-.86-1.22-.84c-.87-.64-1.59-1.22-2.24-1.79a38.33,38.33,0,0,1-4.11-4.22,55,55,0,0,1-6.61-10,2.3,2.3,0,0,0-2-1.22h0a2.39,2.39,0,0,0-1,.25,2.31,2.31,0,0,0-1,3.09A59.5,59.5,0,0,0,190,430.68a42.39,42.39,0,0,0,4.61,4.74c.75.67,1.61,1.35,2.61,2.08l1.37.94,1.32.87a2.37,2.37,0,0,0,3.26-.68,2.34,2.34,0,0,0-.68-3.26Z"/><path class="cls-2" d="M231.3,460.13a37.46,37.46,0,0,0-4-5.21,53.56,53.56,0,0,0-4.73-4.46h0l0,0a2.22,2.22,0,0,0-1.4-.5h0a2.27,2.27,0,0,0-1.76.85,2.24,2.24,0,0,0,.35,3.16c1.64,1.32,3.18,2.65,4.58,4a36,36,0,0,1,4,4.33,19.19,19.19,0,0,1,2.84,5,12.89,12.89,0,0,1,.75,5.52,1.43,1.43,0,0,0,1.27,1.54h.16a1.43,1.43,0,0,0,1.42-1.27,17.53,17.53,0,0,0-.64-6.77A23,23,0,0,0,231.3,460.13Z"/><path class="cls-2" d="M53.27,14.55a25.39,25.39,0,0,1,3.24,4.63l0,.08.09.14a2.66,2.66,0,0,0,4.84-.89,2.7,2.7,0,0,0-.37-2,29.79,29.79,0,0,0-4.31-5.34,33,33,0,0,0-5.3-4.11,40.62,40.62,0,0,0-5.8-3,34.75,34.75,0,0,0-6.23-2l-.1,0h-.11a1.08,1.08,0,0,0-.42,2.07,53.14,53.14,0,0,1,10.21,6.39A34.24,34.24,0,0,1,53.27,14.55Z"/><path class="cls-2" d="M63.05,36.86H63A2.44,2.44,0,0,0,60.5,39.2a28.42,28.42,0,0,1-.6,4.93,16.86,16.86,0,0,1-1.68,4.57,1.43,1.43,0,0,0,0,1.23,1,1,0,0,0,.93.63.84.84,0,0,0,.27,0l1.26-.37A1,1,0,0,0,61,49.9,13.54,13.54,0,0,0,64,45.4a21.7,21.7,0,0,0,1.43-5.79c0-.07,0-.14,0-.2a2.46,2.46,0,0,0-2.35-2.55Z"/><path class="cls-2" d="M60,131.59c-.75-2.22-1.33-4.08-1.82-5.85-.59-2.18-1.06-4.12-1.43-5.93a55.31,55.31,0,0,1-.89-5.88v-.06c0-.05,0-.09,0-.13a2.61,2.61,0,0,0-.15-.58l-.26-.63-.73.16c-1,.16-2,.13-2.94.23L51,113l-.09.79a2.28,2.28,0,0,0,0,.64,58.47,58.47,0,0,0,1.32,6.41c.48,2,1,4,1.73,6.16.63,1.93,1.3,4,2.06,6s1.61,4.18,2.33,5.9a2.06,2.06,0,0,0,1.91,1.27,2.22,2.22,0,0,0,.76-.14,2.07,2.07,0,0,0,1.16-2.68C61.27,135.13,60.6,133.29,60,131.59Z"/><path class="cls-2" d="M73.09,158.9a2.14,2.14,0,0,0-1.83-1h0a2.1,2.1,0,0,0-1.14.33,2.15,2.15,0,0,0-.66,2.95,172.57,172.57,0,0,0,15.18,20.2,1.81,1.81,0,0,0,2.49.21,1.73,1.73,0,0,0,.64-1.21,1.71,1.71,0,0,0-.4-1.3A184,184,0,0,1,73.09,158.9Z"/><path class="cls-2" d="M124,213.26c-1.59-1.12-3.23-2.31-5-3.64s-3.34-2.61-4.87-3.84c-3.28-2.71-6.45-5.43-9.41-8.1a1.68,1.68,0,0,0-1.13-.43h0a1.69,1.69,0,0,0-1.1,3c3.18,2.75,6.48,5.41,9.8,7.91,1.57,1.21,3.19,2.41,4.76,3.57l.26.19c1.53,1.15,3.19,2.36,5.07,3.7a1.4,1.4,0,0,0,.83.27,1.43,1.43,0,0,0,.82-2.6Z"/><path class="cls-2" d="M236.1,206.28a164.7,164.7,0,0,1,19.58,2.81,2.07,2.07,0,0,0,.35,0,1.7,1.7,0,0,0,.35-3.37,168.83,168.83,0,0,0-20-2.95h-.15a1.77,1.77,0,0,0-1.74,1.6,1.72,1.72,0,0,0,.4,1.27A1.74,1.74,0,0,0,236.1,206.28Z"/><path class="cls-2" d="M293.77,220.55a96.76,96.76,0,0,0-18.14-9.13,1.54,1.54,0,0,0-.59-.11,1.66,1.66,0,0,0-.59,3.22A93.32,93.32,0,0,1,292,223.28a1.62,1.62,0,0,0,2.24-.48,1.59,1.59,0,0,0,.23-1.22A1.65,1.65,0,0,0,293.77,220.55Z"/><path class="cls-2" d="M319.85,249.84a86.7,86.7,0,0,0-5.13-8.76,60.16,60.16,0,0,0-6.39-8,1.58,1.58,0,0,0-1.15-.5h0a1.59,1.59,0,0,0-1.58,1.57,1.61,1.61,0,0,0,.45,1.13,79.2,79.2,0,0,1,6.43,7.39,57.56,57.56,0,0,1,5.26,8.25,1.19,1.19,0,0,0,1.05.63,1.25,1.25,0,0,0,.54-.12,1.22,1.22,0,0,0,.59-.69A1.2,1.2,0,0,0,319.85,249.84Z"/><path class="cls-2" d="M310.55,395.9h0a2.27,2.27,0,0,0-2.33,2.31c0,.94-.05,1.9-.06,2.87s0,2.22-.08,3.31c-.09,2.35-.24,4.27-.46,6.05a47.23,47.23,0,0,1-1.12,5.91,44,44,0,0,1-2.06,5.62,1.85,1.85,0,0,0,0,1.85,1.38,1.38,0,0,0,1.19.63,1.92,1.92,0,0,0,1.71-1.15l.08-.19c.48-1.05,1.74-3.84,2.39-5.76a52.27,52.27,0,0,0,1.73-6.24c.45-2.06.81-4.19,1.08-6.35a54.57,54.57,0,0,0,.52-6.44A2.5,2.5,0,0,0,310.55,395.9Z"/><path class="cls-2" d="M314,366.92a19.72,19.72,0,0,0-2.91-6.42,32.61,32.61,0,0,0-4.32-5.09c-1.43-1.4-3.45-3.11-4.88-4.25a2.21,2.21,0,0,0-1.37-.52h0a1.72,1.72,0,0,0-1.64,1.17,2,2,0,0,0,.74,2.2,42.43,42.43,0,0,1,4.3,4.11,27.25,27.25,0,0,1,3.4,4.7,15.4,15.4,0,0,1,1.85,5.07,9.91,9.91,0,0,1,.14,1.26v.08a7.6,7.6,0,0,1,0,1v.35a4.39,4.39,0,0,1-.06.69c0,.17-.05.34-.07.51s0,.17,0,.22c0,.23-.1.63-.2,1.33a2.28,2.28,0,0,0,.5,1.87,2.67,2.67,0,0,0,2.05.87,2.47,2.47,0,0,0,2.62-2c.1-.82.16-1.3.18-1.6h0c0-.19,0-.37,0-.55a7.63,7.63,0,0,0,.06-1.28,11.65,11.65,0,0,0-.11-1.83A13.47,13.47,0,0,0,314,366.92Z"/><path class="cls-2" d="M216.84,202.16h0c-3.76.07-7.06.22-10.08.44-3.77.28-6.92.64-9.89,1.12.12.85.27,1.85.45,3,1.35-.13,2.81-.25,4.69-.37,1.62-.11,3.29-.21,5-.29l1.94-.08c1-.05,2-.09,3-.12,1.64,0,3.28-.07,5-.09a1.79,1.79,0,0,0,1.27-.55,1.78,1.78,0,0,0-1.28-3Z"/><path class="cls-2" d="M281.22,338.78c-1-.47-7.69-3.35-11.69-4.83-1.35-.5-3.08-1.09-4.8-1.66-.55,1-1.14,2-1.77,3.07,1.85.71,3.76,1.46,5.22,2.06l1.46.6c1.4.59,2.84,1.19,4.25,1.81,1,.43,2.25,1,3.35,1.53s1.89.89,2.33,1.07a2.49,2.49,0,0,0,.9.18,1.86,1.86,0,0,0,1.84-1.5A2,2,0,0,0,281.22,338.78Z"/></g><g id="White_Stitches" data-name="White Stitches"><path class="cls-1" d="M225,364.89a.5.5,0,0,0-.11-.47,2.57,2.57,0,0,0-1.92-.86,2.67,2.67,0,0,0-.92.17c-2,.77-4.05,1.45-5.59,2l-1.07.34c-.59.19-1.18.39-1.79.56l-1.25.39c-.56.17-1.13.34-1.71.53a.5.5,0,0,0,.16,1h.07a87.46,87.46,0,0,0,13.8-3.25A.49.49,0,0,0,225,364.89Z"/><path class="cls-1" d="M186.81,199.91c-.13,1-.25,2-.37,3.15v.08a1.52,1.52,0,0,0,1.44,1.59H188a1.51,1.51,0,0,0,1.51-1.43c.06-1.1.11-2.08.19-3.08,0-.59.1-1.17.16-1.75l.12-1.34c.21-2.08.46-4.14.75-6.12a1,1,0,0,0-.65-1.07,1,1,0,0,0-.3,0,1,1,0,0,0-.91.67,51.35,51.35,0,0,0-1.51,6.2C187.11,197.78,187,198.79,186.81,199.91Z"/><path class="cls-1" d="M189.79,221.14a1.67,1.67,0,0,0-1,.76,1.61,1.61,0,0,0-.17,1.25,44.21,44.21,0,0,0,1.86,5.63,34.84,34.84,0,0,0,2.7,5.4l.16.26h.31c1.1-.1,2.22-.19,3.31-.27l1-.06-.64-.76a15.82,15.82,0,0,1-1-1.27,30.39,30.39,0,0,1-2.62-4.67,40.87,40.87,0,0,1-1.9-5.14,1.66,1.66,0,0,0-1.58-1.17A1.84,1.84,0,0,0,189.79,221.14Z"/><path class="cls-1" d="M204.09,240.65c-.82-.62-1.54-1.2-2.21-1.76l-.12-.11h-.16l-4.84-.32-1.26-.07.87.91a52.88,52.88,0,0,0,5.1,4.65h0l0,0a2.07,2.07,0,0,0,1.28.44,2.09,2.09,0,0,0,1.67-.82,2.11,2.11,0,0,0-.38-2.95Z"/><path class="cls-1" d="M240.58,267.93a87.86,87.86,0,0,0-8.69-7.8c-2.71-2.15-5.67-4.33-9.29-6.87a2,2,0,0,0-1.17-.37h0a2,2,0,0,0-1.65.85,2,2,0,0,0-.36,1.52,2,2,0,0,0,.82,1.32c3.42,2.47,6.33,4.73,8.89,6.91a109.47,109.47,0,0,1,8.15,7.62,2.29,2.29,0,1,0,3.3-3.18Z"/><path class="cls-1" d="M257.46,310.83a58.9,58.9,0,0,0-.57-11.84,52.32,52.32,0,0,0-3.2-11.48,2.29,2.29,0,0,0-2.14-1.45,2.36,2.36,0,0,0-.87.17,2.32,2.32,0,0,0-1.28,3,48.23,48.23,0,0,1,2.9,10.47,55.47,55.47,0,0,1,.64,10.92A2.27,2.27,0,0,0,255.1,313h.1A2.26,2.26,0,0,0,257.46,310.83Z"/><path class="cls-1" d="M252.23,331.13a2.46,2.46,0,0,0-.59-.08h0a2.15,2.15,0,0,0-2.07,1.56c-.49,1.71-1.06,3.49-1.69,5.28s-1.32,3.57-2,5.15a49.67,49.67,0,0,1-2.56,4.9,39.59,39.59,0,0,1-3.22,4.48,1.5,1.5,0,1,0,2.31,1.9c1.14-1.41,2.28-2.95,3.48-4.72s2.25-3.42,3.12-5c1-1.74,1.87-3.51,2.64-5.25a54.39,54.39,0,0,0,2.07-5.52h0l0-.06A2.16,2.16,0,0,0,252.23,331.13Z"/><path class="cls-1" d="M204.42,39.57a44.8,44.8,0,0,1,6.08.82,56.22,56.22,0,0,1,6,1.47,55.56,55.56,0,0,1,5.78,2.08,53.91,53.91,0,0,1,5.49,2.71h0l.05,0a1.12,1.12,0,0,0,.53.13,1.16,1.16,0,0,0,.53-2.2A55.1,55.1,0,0,0,223,42a53.33,53.33,0,0,0-18.32-3.5h-.3a.54.54,0,0,0-.53.54v.2l.16.18A.55.55,0,0,0,204.42,39.57Z"/><path class="cls-1" d="M250.21,87.2v.07a1.73,1.73,0,0,0,1.72,1.59h.13A1.72,1.72,0,0,0,253.65,87a68,68,0,0,0-2.07-12.62,51.41,51.41,0,0,0-4.77-11.89,1.25,1.25,0,0,0-1.1-.65h0a1.3,1.3,0,0,0-.58.14,1.26,1.26,0,0,0-.62.74,1.21,1.21,0,0,0,.08,1C248,70.33,249.89,78.23,250.21,87.2Z"/><path class="cls-1" d="M241.52,137a1.52,1.52,0,0,0,.63.14,1.48,1.48,0,0,0,1.33-.83,118.85,118.85,0,0,0,4.87-11.7,94.53,94.53,0,0,0,3.46-12.24,1.9,1.9,0,0,0-.28-1.44,1.83,1.83,0,0,0-1.2-.79,2.2,2.2,0,0,0-.36,0,1.88,1.88,0,0,0-1.84,1.52,119.45,119.45,0,0,1-2.95,11.94,90.08,90.08,0,0,1-4.36,11.5A1.48,1.48,0,0,0,241.52,137Z"/><path class="cls-1" d="M192.32,180.22h.07c.93-.23,1.48-1,1.23-1.7a1.71,1.71,0,0,0-1.82-.92,1.91,1.91,0,0,0-.33.06c-2.12.52-4.31,1-6.42,1.53-1,.24-2,.47-3,.72a.94.94,0,0,0-.82.85.74.74,0,0,0,.32.58,1.27,1.27,0,0,0,.78.21c.93,0,1.89-.11,2.85-.21a66.49,66.49,0,0,0,7.17-1.1Z"/><path class="cls-1" d="M178.38,387.77c-.34-1.51-.65-3-.94-4.53-.1-.52-.2-1-.31-1.55-.35-1.81-.7-3.81-1.06-6.11-.3-1.81-.59-3.75-.89-6.13a1.14,1.14,0,0,0-1.13-1h0a1.14,1.14,0,0,0-1.1,1.17c.07,2.07.26,4.08.47,6.31s.5,4.26.8,6.26c.56,3.78,1.36,7.84,2.42,12.39a1.68,1.68,0,0,0,1.62,1.29,1.45,1.45,0,0,0,.41-.06,1.66,1.66,0,0,0,1.2-2C179.36,392,178.83,389.88,178.38,387.77Z"/><path class="cls-1" d="M204,434.68l-1.31-.86-1.23-.84c-.89-.66-1.63-1.25-2.29-1.84a38.39,38.39,0,0,1-4.16-4.27,55.86,55.86,0,0,1-6.67-10.07,1.79,1.79,0,0,0-1.59-1h0a1.84,1.84,0,0,0-.82.2,1.77,1.77,0,0,0-.88,1,1.74,1.74,0,0,0,.11,1.36,59.45,59.45,0,0,0,7,10.81,43.15,43.15,0,0,0,4.56,4.68c.75.65,1.59,1.32,2.58,2.05l1.35.93,1.32.86a1.82,1.82,0,0,0,1,.31,1.85,1.85,0,0,0,1.82-2.24A1.82,1.82,0,0,0,204,434.68Z"/><path class="cls-1" d="M232.43,459.75a36.84,36.84,0,0,0-3.73-5.32,52.25,52.25,0,0,0-4.46-4.64,1.8,1.8,0,0,0-1.19-.47,1.75,1.75,0,0,0-1.17,3.06c1.59,1.41,3.08,2.82,4.42,4.21a34.69,34.69,0,0,1,3.87,4.58,19.25,19.25,0,0,1,2.66,5.25,13.28,13.28,0,0,1,.5,5.76,1,1,0,0,0,.78,1.05h.15a.92.92,0,0,0,.91-.79,16.77,16.77,0,0,0-.3-6.59A23,23,0,0,0,232.43,459.75Z"/><path class="cls-1" d="M315.08,366.75a18.89,18.89,0,0,0-2.83-6.25,32.72,32.72,0,0,0-4.26-5c-1.41-1.38-3.42-3.08-4.84-4.21a1.68,1.68,0,0,0-1-.41h0a1.21,1.21,0,0,0-1.17.83,1.5,1.5,0,0,0,.57,1.65,40.5,40.5,0,0,1,4.37,4.17,28,28,0,0,1,3.46,4.78,15.64,15.64,0,0,1,1.9,5.24,9,9,0,0,1,.16,1.33,7.66,7.66,0,0,1,0,1.07v.29a4.31,4.31,0,0,1-.06.8c0,.16-.05.33-.07.49v.12h0c-.06.3-.13.76-.23,1.45a1.77,1.77,0,0,0,.38,1.47,2.2,2.2,0,0,0,1.68.7,2,2,0,0,0,2.12-1.6c.11-.9.17-1.34.17-1.58h0c0-.19,0-.38.05-.57a8.31,8.31,0,0,0,.06-1.23,12.62,12.62,0,0,0-.11-1.79A12.17,12.17,0,0,0,315.08,366.75Z"/><path class="cls-1" d="M311.75,396.44a1.77,1.77,0,0,0-1.82,1.8c-.05.94-.08,1.89-.11,2.86s-.06,2.22-.12,3.32c-.13,2.36-.31,4.29-.56,6.09a47.12,47.12,0,0,1-1.22,5.95,44.12,44.12,0,0,1-2.17,5.66,1.39,1.39,0,0,0-.06,1.38.89.89,0,0,0,.78.41,1.44,1.44,0,0,0,1.24-.83l.09-.19c.49-1,1.78-3.8,2.46-5.68a55.22,55.22,0,0,0,1.8-6.16c.48-2,.87-4.15,1.16-6.29a54.12,54.12,0,0,0,.62-6.37A2,2,0,0,0,311.75,396.44Z"/><path class="cls-1" d="M58.16,16.71l.05.08.07.11a2.2,2.2,0,0,0,1.75.89,2.15,2.15,0,0,0,1.27-.42A2.12,2.12,0,0,0,62.17,16a2.15,2.15,0,0,0-.39-1.61,28.83,28.83,0,0,0-4.51-5,32.46,32.46,0,0,0-5.41-3.76A39.64,39.64,0,0,0,46,2.91,34.51,34.51,0,0,0,39.74,1.3h-.08a.58.58,0,0,0-.2,1.12,53.31,53.31,0,0,1,10.66,5.9,34.38,34.38,0,0,1,4.49,3.86A25.41,25.41,0,0,1,58.16,16.71Z"/><path class="cls-1" d="M64.61,37.32h-.09a2,2,0,0,0-1.95,1.86,29.52,29.52,0,0,1-.6,5,17.7,17.7,0,0,1-1.73,4.7.89.89,0,0,0,0,.81l.16.42.44-.13,1.24-.37.12,0,.09-.09a13.2,13.2,0,0,0,2.8-4.33,21.28,21.28,0,0,0,1.4-5.67s0-.11,0-.16a1.95,1.95,0,0,0-1.86-2Z"/><path class="cls-1" d="M61.2,131.06c-.76-2.23-1.35-4.1-1.84-5.88-.59-2.19-1.06-4.14-1.44-6a56.74,56.74,0,0,1-.89-5.93v-.07s0-.07,0-.1a2.17,2.17,0,0,0-.12-.47l-.15-.37-.4.06c-1,.16-1.94.29-2.86.38l-.4,0,0,.4a2.17,2.17,0,0,0,0,.51A58,58,0,0,0,54.34,120c.48,1.94,1,3.94,1.73,6.13.62,1.92,1.29,4,2,6s1.62,4.16,2.33,5.88a1.56,1.56,0,0,0,1.45,1,1.6,1.6,0,0,0,.57-.11,1.57,1.57,0,0,0,.89-2C62.46,134.61,61.78,132.77,61.2,131.06Z"/><path class="cls-1" d="M74.15,158.38a1.65,1.65,0,0,0-1.4-.78h0a1.58,1.58,0,0,0-.87.26,1.65,1.65,0,0,0-.51,2.26,171.62,171.62,0,0,0,15.14,20.14,1.3,1.3,0,0,0,1,.44,1.28,1.28,0,0,0,.81-.29,1.25,1.25,0,0,0,.46-.87,1.23,1.23,0,0,0-.28-.94A181.91,181.91,0,0,1,74.15,158.38Z"/><path class="cls-1" d="M119.57,208.94c-1.67-1.33-3.28-2.69-4.78-4-3.23-2.8-6.33-5.61-9.22-8.35a1.21,1.21,0,0,0-.82-.33h0a1.19,1.19,0,0,0-.8,2.08c3.1,2.82,6.32,5.55,9.57,8.14,1.54,1.24,3.13,2.48,4.67,3.68l.25.2c1.5,1.18,3.13,2.43,5,3.82a1,1,0,0,0,.56.19.91.91,0,0,0,.74-.38.93.93,0,0,0-.19-1.3C123,211.56,121.34,210.32,119.57,208.94Z"/><path class="cls-1" d="M236.49,204.63a165.71,165.71,0,0,1,19.64,2.82l.25,0a1.2,1.2,0,0,0,.24-2.38,169.9,169.9,0,0,0-19.92-2.94h-.11a1.26,1.26,0,0,0-1.24,1.14,1.25,1.25,0,0,0,.29.91A1.21,1.21,0,0,0,236.49,204.63Z"/><path class="cls-1" d="M294,219.82a95.79,95.79,0,0,0-18-9.08,1,1,0,0,0-.41-.08h0a1.16,1.16,0,0,0-.42,2.25,93.18,93.18,0,0,1,17.65,8.8,1.14,1.14,0,0,0,.61.18,1.13,1.13,0,0,0,1.1-1.36A1.13,1.13,0,0,0,294,219.82Z"/><path class="cls-1" d="M320.12,250.09a84.41,84.41,0,0,0-4.72-8.91,60.05,60.05,0,0,0-6-8.19,1.1,1.1,0,0,0-.82-.37h0a1.07,1.07,0,0,0-.72.28,1.08,1.08,0,0,0-.08,1.53,81.2,81.2,0,0,1,6.15,7.71,58.62,58.62,0,0,1,4.95,8.53.68.68,0,0,0,.62.39.67.67,0,0,0,.28-.06.64.64,0,0,0,.36-.38A.65.65,0,0,0,320.12,250.09Z"/><path class="cls-1" d="M216.84,201.38h0c-3.75.07-7,.22-10.05.44-3.83.29-7,.65-10,1.14h0c0,.24.06.49.1.76s.11.78.17,1.21c1.43-.15,2.95-.27,4.94-.39,1.62-.12,3.29-.22,5-.3l1.93-.08c1,0,2-.09,3-.11,1.65-.06,3.29-.08,5-.1a1.29,1.29,0,0,0,.91-.39,1.27,1.27,0,0,0,.36-.92A1.29,1.29,0,0,0,216.84,201.38Z"/><path class="cls-1" d="M281.51,338.21c-1-.47-7.66-3.34-11.65-4.81-1.36-.5-3.1-1.09-4.83-1.67l-.3.56c-.3.54-.61,1.09-.93,1.64,1.81.7,3.65,1.42,5.07,2l1.46.61c1.4.58,2.85,1.19,4.26,1.81,1,.43,2.25,1,3.36,1.54s1.88.88,2.31,1.05a1.85,1.85,0,0,0,.71.15,1.38,1.38,0,0,0,1.36-1.12A1.55,1.55,0,0,0,281.51,338.21Z"/></g><path id="Mouth" class="cls-2" d="M221.2,148.9c-9.34-1.15-18.52-2.66-26.86-5.7-6.22-2.27-10.84-5.11-12.69-8.87-.35-.72-.08-1,1.13-1.2s2.46-.38,3.72-.53a34.58,34.58,0,0,0,3.62-.31c-8.6-2.5-19.39,3.57-21.68,6.73-.52.71,7-4.24,12.33-5.39a61.61,61.61,0,0,0,.42,6.75c1.44,8.78,5.83,17.42,13,25.91a49.23,49.23,0,0,0,16.06,12.9,38.86,38.86,0,0,0,16.41,4.24,36.27,36.27,0,0,0,16.42-3c.08,0,0-.15,0-.26a28.94,28.94,0,0,0-5.22,1.06,2.92,2.92,0,0,1-1.29-.81,15.7,15.7,0,0,1-3.09-10.77c.38-6.38,3.65-11.1,8.11-16.71.34-.43,10.47-1.56,10.14-2.06s-6.47-.21-9.71-.35C235.14,150.22,228.19,149.76,221.2,148.9Z"/><path id="Tongue" class="cls-4" d="M231.08,175.58a21,21,0,0,0-9.23-7.77,22.37,22.37,0,0,0-7.32-1.93l2.47,2.63-.41.11c-2.69-2.43-5.35-4.88-9.87-6.65a40.15,40.15,0,0,0-15.19-2.91c2.43,2.87,4.53,5.57,7,8.21a44.59,44.59,0,0,0,14.12,10.3,37.55,37.55,0,0,0,19.47,3.52c1-.09,1.52-.27,1.21-.88A42.89,42.89,0,0,0,231.08,175.58Z"/><g id="Shadows"><path id="Under_Head_Shadow" data-name="Under Head Shadow" class="cls-2" d="M146.45,170.56s17.67,11.15,48.78,17.94c0,0-20.21-2-50.55-14.44Z"/><path id="Leg_Shadow" data-name="Leg Shadow" class="cls-2" d="M254.13,347.66s10.59-12.8,15.52-25.66c0,0-3.69,16-11.15,28.64Z"/><path id="Arm_Shadow" data-name="Arm Shadow" class="cls-2" d="M204.91,221a58,58,0,0,1-8.71-20.75s1.92,13.22,4.07,20.75Z"/></g></g></svg>